<svg width="1600" height="300" viewBox="0 0 1600 300" fill="none" xmlns="http://www.w3.org/2000/svg">
<rect x="-8" width="1607" height="300" fill="#2D2D2D"/>
<mask id="mask0_3_8357" style="mask-type:alpha" maskUnits="userSpaceOnUse" x="-186" y="253" width="1881" height="47">
<path d="M1694 300L1694 253L-186 253L-186 300L1694 300Z" fill="black" fill-opacity="0.25"/>
</mask>
<g mask="url(#mask0_3_8357)">
<path fill-rule="evenodd" clip-rule="evenodd" d="M351.331 -185.185V-123H439.158L986.354 566.65V568.316L1123.27 740.876H986.109V677.447H898.443L351.247 -12.2033V-12.4233L214.171 -185.185H351.331ZM-146.455 615.06L-283.615 442.193V615.06H-146.455ZM146.473 615.06L-283.615 73.2064V294.598L-29.1876 615.262H146.473V615.06ZM-78.5972 -185.185L351.247 356.563V356.783L605.675 677.447H781.336V677.245L351.491 135.699V135.479L97.0637 -185.185H-78.5972ZM-283.615 -185.185V-74.3881L263.581 615.262H351.247V677.245H488.407L351.491 504.685V504.465L-195.705 -185.185H-283.615ZM986.193 -59.3694V-123H849.033L986.109 49.7617V51.4275L1533.31 741.078H1621.22V630.281L1074.02 -59.3694H986.193ZM986.354 199.33L1416.2 740.876V741.078H1240.54L986.109 420.414V418.748L556.265 -123H731.926L986.354 197.664V199.33ZM1621.06 113.498V-59.3694H1483.9L1621.06 113.498ZM1621.22 482.686L1191.13 -59.3694H1366.79L1621.22 261.295V482.686Z" fill="#595959"/>
</g>
<mask id="mask1_3_8357" style="mask-type:alpha" maskUnits="userSpaceOnUse" x="-208" y="0" width="1881" height="43">
<path d="M1672 43L1672 7.24792e-05L-208 0.00014626L-208 43.0001L1672 43Z" fill="black" fill-opacity="0.25"/>
</mask>
<g mask="url(#mask1_3_8357)">
<path fill-rule="evenodd" clip-rule="evenodd" d="M329.331 -400.891V-343.998H417.158L964.354 286.955V288.479L1101.27 446.352H964.109V388.322H876.443L329.247 -242.631V-242.833L192.171 -400.891H329.331ZM-168.455 331.245L-305.615 173.09V331.245H-168.455ZM124.473 331.245L-305.615 -164.491V38.0577L-51.1876 331.43H124.473V331.245ZM-100.597 -400.891L329.247 94.7488V94.95L583.675 388.322H759.336V388.137L329.491 -107.317V-107.518L75.0637 -400.891H-100.597ZM-305.615 -400.891V-299.524L241.581 331.43H329.247V388.137H466.407L329.491 230.264V230.063L-217.705 -400.891H-305.615ZM964.193 -285.783V-343.998H827.033L964.109 -185.94V-184.416L1511.31 446.537H1599.22V345.17L1052.02 -285.783H964.193ZM964.354 -49.1022L1394.2 446.352V446.537H1218.54L964.109 153.165V151.641L534.265 -343.998H709.926L964.354 -50.6262V-49.1022ZM1599.06 -127.629V-285.783H1461.9L1599.06 -127.629ZM1599.22 210.138L1169.13 -285.783H1344.79L1599.22 7.58902V210.138Z" fill="#595959"/>
</g>
<mask id="path-6-outside-1_3_8357" maskUnits="userSpaceOnUse" x="294" y="90" width="82" height="55" fill="black">
<rect fill="white" x="294" y="90" width="82" height="55"/>
<path d="M324.926 104.97C324.926 107.35 324.482 109.753 323.596 112.18C322.756 114.607 321.659 116.987 320.306 119.32C318.999 121.653 317.529 123.917 315.896 126.11C314.309 128.257 312.746 130.24 311.206 132.06L307.496 134.93V135.28L312.536 134.3H325.976V142H296.506V137.31C297.626 136.143 298.886 134.79 300.286 133.25C301.686 131.663 303.086 130.007 304.486 128.28C305.932 126.507 307.332 124.687 308.686 122.82C310.039 120.953 311.252 119.087 312.326 117.22C313.399 115.307 314.239 113.463 314.846 111.69C315.499 109.917 315.826 108.237 315.826 106.65C315.826 104.737 315.266 103.173 314.146 101.96C313.072 100.7 311.346 100.07 308.966 100.07C307.472 100.07 305.932 100.397 304.346 101.05C302.806 101.657 301.499 102.45 300.426 103.43L296.786 96.99C298.606 95.4967 300.659 94.3067 302.946 93.42C305.279 92.4867 308.009 92.02 311.136 92.02C313.142 92.02 314.986 92.3 316.666 92.86C318.346 93.42 319.792 94.2367 321.006 95.31C322.219 96.3833 323.176 97.7367 323.876 99.37C324.576 100.957 324.926 102.823 324.926 104.97ZM339.092 117.43C339.092 108.843 340.562 102.473 343.502 98.32C346.442 94.12 350.666 92.02 356.172 92.02C362.052 92.02 366.369 94.0967 369.122 98.25C371.876 102.357 373.252 108.75 373.252 117.43C373.252 126.063 371.759 132.48 368.772 136.68C365.832 140.88 361.609 142.98 356.102 142.98C350.269 142.98 345.976 140.787 343.222 136.4C340.469 131.967 339.092 125.643 339.092 117.43ZM348.192 117.43C348.192 123.123 348.799 127.533 350.012 130.66C351.272 133.74 353.326 135.28 356.172 135.28C358.926 135.28 360.932 133.857 362.192 131.01C363.499 128.163 364.152 123.637 364.152 117.43C364.152 111.783 363.546 107.42 362.332 104.34C361.119 101.26 359.042 99.72 356.102 99.72C353.302 99.72 351.272 101.167 350.012 104.06C348.799 106.953 348.192 111.41 348.192 117.43Z"/>
</mask>
<path d="M323.596 112.18L321.717 111.494L321.711 111.51L321.706 111.526L323.596 112.18ZM320.306 119.32L318.575 118.317L318.568 118.33L318.56 118.343L320.306 119.32ZM315.896 126.11L314.291 124.915L314.287 124.921L315.896 126.11ZM311.206 132.06L312.429 133.642L312.596 133.513L312.732 133.352L311.206 132.06ZM307.496 134.93L306.272 133.348L305.496 133.949V134.93H307.496ZM307.496 135.28H305.496V137.706L307.877 137.243L307.496 135.28ZM312.536 134.3V132.3H312.343L312.154 132.337L312.536 134.3ZM325.976 134.3H327.976V132.3H325.976V134.3ZM325.976 142V144H327.976V142H325.976ZM296.506 142H294.506V144H296.506V142ZM296.506 137.31L295.063 135.925L294.506 136.505V137.31H296.506ZM300.286 133.25L301.765 134.595L301.775 134.584L301.785 134.573L300.286 133.25ZM304.486 128.28L302.936 127.016L302.932 127.02L304.486 128.28ZM308.686 122.82L307.066 121.646L308.686 122.82ZM312.326 117.22L314.059 118.217L314.065 118.208L314.07 118.199L312.326 117.22ZM314.846 111.69L312.969 110.999L312.961 111.021L312.953 111.043L314.846 111.69ZM314.146 101.96L312.623 103.257L312.649 103.287L312.676 103.317L314.146 101.96ZM304.346 101.05L305.079 102.911L305.093 102.905L305.107 102.899L304.346 101.05ZM300.426 103.43L298.684 104.414L299.92 106.6L301.774 104.907L300.426 103.43ZM296.786 96.99L295.517 95.4439L294.217 96.5104L295.044 97.9741L296.786 96.99ZM302.946 93.42L303.669 95.2847L303.678 95.2809L303.688 95.277L302.946 93.42ZM316.666 92.86L316.033 94.7574L316.033 94.7574L316.666 92.86ZM321.006 95.31L322.331 93.812L322.331 93.812L321.006 95.31ZM323.876 99.37L322.037 100.158L322.041 100.168L322.046 100.177L323.876 99.37ZM322.926 104.97C322.926 107.097 322.53 109.268 321.717 111.494L325.474 112.866C326.434 110.239 326.926 107.603 326.926 104.97H322.926ZM321.706 111.526C320.91 113.825 319.868 116.089 318.575 118.317L322.036 120.323C323.45 117.885 324.601 115.388 325.485 112.834L321.706 111.526ZM318.56 118.343C317.297 120.599 315.874 122.79 314.291 124.915L317.5 127.305C319.183 125.043 320.701 122.708 322.051 120.297L318.56 118.343ZM314.287 124.921C312.724 127.037 311.187 128.985 309.679 130.768L312.732 133.352C314.304 131.495 315.894 129.477 317.504 127.299L314.287 124.921ZM309.982 130.478L306.272 133.348L308.719 136.512L312.429 133.642L309.982 130.478ZM305.496 134.93V135.28H309.496V134.93H305.496ZM307.877 137.243L312.917 136.263L312.154 132.337L307.114 133.317L307.877 137.243ZM312.536 136.3H325.976V132.3H312.536V136.3ZM323.976 134.3V142H327.976V134.3H323.976ZM325.976 140H296.506V144H325.976V140ZM298.506 142V137.31H294.506V142H298.506ZM297.948 138.695C299.084 137.512 300.356 136.145 301.765 134.595L298.806 131.905C297.415 133.435 296.167 134.774 295.063 135.925L297.948 138.695ZM301.785 134.573C303.204 132.965 304.622 131.287 306.039 129.54L302.932 127.02C301.549 128.727 300.167 130.362 298.786 131.927L301.785 134.573ZM306.035 129.544C307.506 127.741 308.929 125.891 310.305 123.994L307.066 121.646C305.735 123.482 304.358 125.272 302.936 127.016L306.035 129.544ZM310.305 123.994C311.696 122.074 312.949 120.149 314.059 118.217L310.592 116.223C309.556 118.025 308.381 119.832 307.066 121.646L310.305 123.994ZM314.07 118.199C315.193 116.197 316.086 114.243 316.738 112.337L312.953 111.043C312.392 112.684 311.605 114.416 310.581 116.241L314.07 118.199ZM316.722 112.381C317.442 110.428 317.826 108.513 317.826 106.65H313.826C313.826 107.96 313.556 109.405 312.969 110.999L316.722 112.381ZM317.826 106.65C317.826 104.319 317.13 102.244 315.615 100.603L312.676 103.317C313.401 104.102 313.826 105.154 313.826 106.65H317.826ZM315.668 100.663C314.071 98.7887 311.667 98.07 308.966 98.07V102.07C311.024 102.07 312.073 102.611 312.623 103.257L315.668 100.663ZM308.966 98.07C307.175 98.07 305.377 98.4625 303.584 99.2006L305.107 102.899C306.488 102.331 307.769 102.07 308.966 102.07V98.07ZM303.612 99.1892C301.877 99.8729 300.354 100.787 299.077 101.953L301.774 104.907C302.644 104.113 303.734 103.44 305.079 102.911L303.612 99.1892ZM302.167 102.446L298.527 96.0059L295.044 97.9741L298.684 104.414L302.167 102.446ZM298.054 98.5361C299.704 97.1828 301.571 96.098 303.669 95.2847L302.222 91.5553C299.747 92.5153 297.507 93.8105 295.517 95.4439L298.054 98.5361ZM303.688 95.277C305.735 94.4581 308.203 94.02 311.136 94.02V90.02C307.814 90.02 304.822 90.5152 302.203 91.563L303.688 95.277ZM311.136 94.02C312.955 94.02 314.582 94.2737 316.033 94.7574L317.298 90.9626C315.389 90.3263 313.329 90.02 311.136 90.02V94.02ZM316.033 94.7574C317.482 95.2402 318.687 95.9291 319.68 96.808L322.331 93.812C320.898 92.5443 319.209 91.5998 317.298 90.9626L316.033 94.7574ZM319.68 96.808C320.652 97.6671 321.442 98.7696 322.037 100.158L325.714 98.5822C324.909 96.7038 323.786 95.0996 322.331 93.812L319.68 96.808ZM322.046 100.177C322.61 101.457 322.926 103.037 322.926 104.97H326.926C326.926 102.61 326.541 100.457 325.705 98.5627L322.046 100.177ZM343.502 98.32L345.135 99.4755L345.141 99.4669L343.502 98.32ZM369.122 98.25L367.455 99.3551L367.461 99.3638L369.122 98.25ZM368.772 136.68L367.142 135.521L367.138 135.527L367.134 135.533L368.772 136.68ZM343.222 136.4L341.523 137.455L341.528 137.463L343.222 136.4ZM350.012 130.66L348.148 131.384L348.154 131.4L348.161 131.417L350.012 130.66ZM362.192 131.01L360.375 130.176L360.369 130.188L360.363 130.201L362.192 131.01ZM362.332 104.34L360.471 105.073H360.471L362.332 104.34ZM350.012 104.06L348.179 103.261L348.173 103.274L348.168 103.287L350.012 104.06ZM341.092 117.43C341.092 109.001 342.548 103.129 345.135 99.4755L341.87 97.1645C338.576 101.817 337.092 108.685 337.092 117.43H341.092ZM345.141 99.4669C347.675 95.8466 351.261 94.02 356.172 94.02V90.02C350.07 90.02 345.21 92.3934 341.864 97.1731L345.141 99.4669ZM356.172 94.02C361.521 94.02 365.144 95.8677 367.455 99.3551L370.789 97.1449C367.594 92.3256 362.583 90.02 356.172 90.02V94.02ZM367.461 99.3638C369.882 102.975 371.252 108.883 371.252 117.43H375.252C375.252 108.617 373.869 101.738 370.784 97.1362L367.461 99.3638ZM371.252 117.43C371.252 125.901 369.774 131.82 367.142 135.521L370.402 137.839C373.744 133.14 375.252 126.226 375.252 117.43H371.252ZM367.134 135.533C364.6 139.153 361.013 140.98 356.102 140.98V144.98C362.205 144.98 367.065 142.607 370.411 137.827L367.134 135.533ZM356.102 140.98C350.854 140.98 347.252 139.058 344.916 135.337L341.528 137.463C344.699 142.515 349.684 144.98 356.102 144.98V140.98ZM344.921 135.345C342.447 131.361 341.092 125.466 341.092 117.43H337.092C337.092 125.821 338.491 132.572 341.523 137.455L344.921 135.345ZM346.192 117.43C346.192 123.223 346.804 127.92 348.148 131.384L351.877 129.936C350.794 127.147 350.192 123.024 350.192 117.43H346.192ZM348.161 131.417C348.888 133.195 349.908 134.683 351.297 135.725C352.708 136.783 354.366 137.28 356.172 137.28V133.28C355.132 133.28 354.34 133.007 353.697 132.525C353.034 132.027 352.396 131.205 351.863 129.903L348.161 131.417ZM356.172 137.28C357.912 137.28 359.518 136.824 360.899 135.844C362.265 134.875 363.284 133.486 364.021 131.819L360.363 130.201C359.841 131.381 359.226 132.127 358.585 132.581C357.96 133.025 357.186 133.28 356.172 133.28V137.28ZM364.01 131.844C365.505 128.587 366.152 123.697 366.152 117.43H362.152C362.152 123.577 361.493 127.739 360.375 130.176L364.01 131.844ZM366.152 117.43C366.152 111.684 365.541 107.029 364.193 103.607L360.471 105.073C361.55 107.811 362.152 111.882 362.152 117.43H366.152ZM364.193 103.607C363.487 101.815 362.468 100.316 361.056 99.2685C359.627 98.2086 357.94 97.72 356.102 97.72V101.72C357.205 101.72 358.026 102.001 358.673 102.481C359.338 102.974 359.964 103.785 360.471 105.073L364.193 103.607ZM356.102 97.72C354.34 97.72 352.714 98.1822 351.319 99.1763C349.94 100.159 348.915 101.57 348.179 103.261L351.846 104.859C352.369 103.657 352.99 102.897 353.641 102.434C354.276 101.981 355.065 101.72 356.102 101.72V97.72ZM348.168 103.287C346.796 106.558 346.192 111.343 346.192 117.43H350.192C350.192 111.477 350.802 107.348 351.857 104.833L348.168 103.287Z" fill="white" mask="url(#path-6-outside-1_3_8357)"/>
<path d="M275.638 168.316V178H272.83V170.62H269.77L269.68 172.33C269.632 173.602 269.512 174.658 269.32 175.498C269.128 176.338 268.816 176.998 268.384 177.478C267.952 177.958 267.352 178.198 266.584 178.198C266.176 178.198 265.69 178.126 265.126 177.982L265.27 175.678C265.462 175.702 265.6 175.714 265.684 175.714C266.104 175.714 266.416 175.564 266.62 175.264C266.836 174.952 266.98 174.562 267.052 174.094C267.124 173.614 267.178 172.984 267.214 172.204L267.358 168.316H275.638ZM287.752 173.194C287.752 173.23 287.734 173.482 287.698 173.95H280.372C280.504 174.55 280.816 175.024 281.308 175.372C281.8 175.72 282.412 175.894 283.144 175.894C283.648 175.894 284.092 175.822 284.476 175.678C284.872 175.522 285.238 175.282 285.574 174.958L287.068 176.578C286.156 177.622 284.824 178.144 283.072 178.144C281.98 178.144 281.014 177.934 280.174 177.514C279.334 177.082 278.686 176.488 278.23 175.732C277.774 174.976 277.546 174.118 277.546 173.158C277.546 172.21 277.768 171.358 278.212 170.602C278.668 169.834 279.286 169.24 280.066 168.82C280.858 168.388 281.74 168.172 282.712 168.172C283.66 168.172 284.518 168.376 285.286 168.784C286.054 169.192 286.654 169.78 287.086 170.548C287.53 171.304 287.752 172.186 287.752 173.194ZM282.73 170.296C282.094 170.296 281.56 170.476 281.128 170.836C280.696 171.196 280.432 171.688 280.336 172.312H285.106C285.01 171.7 284.746 171.214 284.314 170.854C283.882 170.482 283.354 170.296 282.73 170.296ZM297.707 170.62H294.431V178H291.641V170.62H288.365V168.316H297.707V170.62ZM304.301 168.316H307.091V172.096H311.303V168.316H314.111V178H311.303V174.382H307.091V178H304.301V168.316ZM320.561 168.172C322.061 168.172 323.213 168.532 324.017 169.252C324.821 169.96 325.223 171.034 325.223 172.474V178H322.595V176.794C322.067 177.694 321.083 178.144 319.643 178.144C318.899 178.144 318.251 178.018 317.699 177.766C317.159 177.514 316.745 177.166 316.457 176.722C316.169 176.278 316.025 175.774 316.025 175.21C316.025 174.31 316.361 173.602 317.033 173.086C317.717 172.57 318.767 172.312 320.183 172.312H322.415C322.415 171.7 322.229 171.232 321.857 170.908C321.485 170.572 320.927 170.404 320.183 170.404C319.667 170.404 319.157 170.488 318.653 170.656C318.161 170.812 317.741 171.028 317.393 171.304L316.385 169.342C316.913 168.97 317.543 168.682 318.275 168.478C319.019 168.274 319.781 168.172 320.561 168.172ZM320.345 176.254C320.825 176.254 321.251 176.146 321.623 175.93C321.995 175.702 322.259 175.372 322.415 174.94V173.95H320.489C319.337 173.95 318.761 174.328 318.761 175.084C318.761 175.444 318.899 175.732 319.175 175.948C319.463 176.152 319.853 176.254 320.345 176.254ZM338.466 168.172C339.366 168.172 340.182 168.382 340.914 168.802C341.658 169.21 342.24 169.792 342.66 170.548C343.08 171.292 343.29 172.162 343.29 173.158C343.29 174.154 343.08 175.03 342.66 175.786C342.24 176.53 341.658 177.112 340.914 177.532C340.182 177.94 339.366 178.144 338.466 178.144C337.23 178.144 336.258 177.754 335.55 176.974V181.492H332.742V168.316H335.424V169.432C336.12 168.592 337.134 168.172 338.466 168.172ZM337.98 175.84C338.7 175.84 339.288 175.6 339.744 175.12C340.212 174.628 340.446 173.974 340.446 173.158C340.446 172.342 340.212 171.694 339.744 171.214C339.288 170.722 338.7 170.476 337.98 170.476C337.26 170.476 336.666 170.722 336.198 171.214C335.742 171.694 335.514 172.342 335.514 173.158C335.514 173.974 335.742 174.628 336.198 175.12C336.666 175.6 337.26 175.84 337.98 175.84ZM350.352 171.412C351.612 171.424 352.566 171.706 353.214 172.258C353.862 172.81 354.186 173.602 354.186 174.634C354.186 175.714 353.82 176.548 353.088 177.136C352.356 177.724 351.318 178.018 349.974 178.018L345.258 178V168.316H348.048V171.412H350.352ZM355.23 168.316H358.02V178H355.23V168.316ZM349.722 176.02C350.262 176.032 350.676 175.918 350.964 175.678C351.252 175.438 351.396 175.078 351.396 174.598C351.396 174.13 351.252 173.788 350.964 173.572C350.688 173.356 350.274 173.242 349.722 173.23L348.048 173.212V176.02H349.722ZM360.727 168.316H363.517V172.096H367.729V168.316H370.537V178H367.729V174.382H363.517V178H360.727V168.316ZM377.491 174.328H376.033V178H373.225V168.316H376.033V172.078H377.545L380.173 168.316H383.161L379.777 172.96L383.395 178H380.083L377.491 174.328ZM393.889 173.194C393.889 173.23 393.871 173.482 393.835 173.95H386.509C386.641 174.55 386.953 175.024 387.445 175.372C387.937 175.72 388.549 175.894 389.281 175.894C389.785 175.894 390.229 175.822 390.613 175.678C391.009 175.522 391.375 175.282 391.711 174.958L393.205 176.578C392.293 177.622 390.961 178.144 389.209 178.144C388.117 178.144 387.151 177.934 386.311 177.514C385.471 177.082 384.823 176.488 384.367 175.732C383.911 174.976 383.683 174.118 383.683 173.158C383.683 172.21 383.905 171.358 384.349 170.602C384.805 169.834 385.423 169.24 386.203 168.82C386.995 168.388 387.877 168.172 388.849 168.172C389.797 168.172 390.655 168.376 391.423 168.784C392.191 169.192 392.791 169.78 393.223 170.548C393.667 171.304 393.889 172.186 393.889 173.194ZM388.867 170.296C388.231 170.296 387.697 170.476 387.265 170.836C386.833 171.196 386.569 171.688 386.473 172.312H391.243C391.147 171.7 390.883 171.214 390.451 170.854C390.019 170.482 389.491 170.296 388.867 170.296Z" fill="white"/>
<mask id="path-9-outside-2_3_8357" maskUnits="userSpaceOnUse" x="609" y="90" width="237" height="55" fill="black">
<rect fill="white" x="609" y="90" width="237" height="55"/>
<path d="M615.07 134.3H624.8V106.65L625.85 101.89L622.49 106.02L616.26 110.29L612.41 105.04L628.37 92.16H633.48V134.3H643V142H615.07V134.3ZM678.022 117.43C678.022 108.843 679.492 102.473 682.432 98.32C685.372 94.12 689.595 92.02 695.102 92.02C700.982 92.02 705.299 94.0967 708.052 98.25C710.805 102.357 712.182 108.75 712.182 117.43C712.182 126.063 710.689 132.48 707.702 136.68C704.762 140.88 700.539 142.98 695.032 142.98C689.199 142.98 684.905 140.787 682.152 136.4C679.399 131.967 678.022 125.643 678.022 117.43ZM687.122 117.43C687.122 123.123 687.729 127.533 688.942 130.66C690.202 133.74 692.255 135.28 695.102 135.28C697.855 135.28 699.862 133.857 701.122 131.01C702.429 128.163 703.082 123.637 703.082 117.43C703.082 111.783 702.475 107.42 701.262 104.34C700.049 101.26 697.972 99.72 695.032 99.72C692.232 99.72 690.202 101.167 688.942 104.06C687.729 106.953 687.122 111.41 687.122 117.43ZM722.639 117.43C722.639 108.843 724.109 102.473 727.049 98.32C729.989 94.12 734.212 92.02 739.719 92.02C745.599 92.02 749.915 94.0967 752.669 98.25C755.422 102.357 756.799 108.75 756.799 117.43C756.799 126.063 755.305 132.48 752.319 136.68C749.379 140.88 745.155 142.98 739.649 142.98C733.815 142.98 729.522 140.787 726.769 136.4C724.015 131.967 722.639 125.643 722.639 117.43ZM731.739 117.43C731.739 123.123 732.345 127.533 733.559 130.66C734.819 133.74 736.872 135.28 739.719 135.28C742.472 135.28 744.479 133.857 745.739 131.01C747.045 128.163 747.699 123.637 747.699 117.43C747.699 111.783 747.092 107.42 745.879 104.34C744.665 101.26 742.589 99.72 739.649 99.72C736.849 99.72 734.819 101.167 733.559 104.06C732.345 106.953 731.739 111.41 731.739 117.43ZM767.255 117.43C767.255 108.843 768.725 102.473 771.665 98.32C774.605 94.12 778.829 92.02 784.335 92.02C790.215 92.02 794.532 94.0967 797.285 98.25C800.039 102.357 801.415 108.75 801.415 117.43C801.415 126.063 799.922 132.48 796.935 136.68C793.995 140.88 789.772 142.98 784.265 142.98C778.432 142.98 774.139 140.787 771.385 136.4C768.632 131.967 767.255 125.643 767.255 117.43ZM776.355 117.43C776.355 123.123 776.962 127.533 778.175 130.66C779.435 133.74 781.489 135.28 784.335 135.28C787.089 135.28 789.095 133.857 790.355 131.01C791.662 128.163 792.315 123.637 792.315 117.43C792.315 111.783 791.709 107.42 790.495 104.34C789.282 101.26 787.205 99.72 784.265 99.72C781.465 99.72 779.435 101.167 778.175 104.06C776.962 106.953 776.355 111.41 776.355 117.43ZM812.082 114.42H823.422V102.59H831.612V114.42H843.022V122.26H831.612V134.23H823.422V122.26H812.082V114.42Z"/>
</mask>
<path d="M615.07 134.3V132.3H613.07V134.3H615.07ZM624.8 134.3V136.3H626.8V134.3H624.8ZM624.8 106.65L622.847 106.219L622.8 106.432V106.65H624.8ZM625.85 101.89L627.803 102.321L624.299 100.628L625.85 101.89ZM622.49 106.02L623.621 107.67L623.859 107.506L624.041 107.282L622.49 106.02ZM616.26 110.29L614.647 111.473L615.793 113.035L617.391 111.94L616.26 110.29ZM612.41 105.04L611.154 103.484L609.668 104.683L610.797 106.223L612.41 105.04ZM628.37 92.16V90.16H627.664L627.114 90.6036L628.37 92.16ZM633.48 92.16H635.48V90.16H633.48V92.16ZM633.48 134.3H631.48V136.3H633.48V134.3ZM643 134.3H645V132.3H643V134.3ZM643 142V144H645V142H643ZM615.07 142H613.07V144H615.07V142ZM615.07 136.3H624.8V132.3H615.07V136.3ZM626.8 134.3V106.65H622.8V134.3H626.8ZM626.753 107.081L627.803 102.321L623.897 101.459L622.847 106.219L626.753 107.081ZM624.299 100.628L620.939 104.758L624.041 107.282L627.401 103.152L624.299 100.628ZM621.359 104.37L615.129 108.64L617.391 111.94L623.621 107.67L621.359 104.37ZM617.873 109.107L614.023 103.857L610.797 106.223L614.647 111.473L617.873 109.107ZM613.666 106.596L629.626 93.7164L627.114 90.6036L611.154 103.484L613.666 106.596ZM628.37 94.16H633.48V90.16H628.37V94.16ZM631.48 92.16V134.3H635.48V92.16H631.48ZM633.48 136.3H643V132.3H633.48V136.3ZM641 134.3V142H645V134.3H641ZM643 140H615.07V144H643V140ZM617.07 142V134.3H613.07V142H617.07ZM682.432 98.32L684.064 99.4755L684.07 99.4669L682.432 98.32ZM708.052 98.25L706.385 99.3551L706.391 99.3638L708.052 98.25ZM707.702 136.68L706.072 135.521L706.068 135.527L706.063 135.533L707.702 136.68ZM682.152 136.4L680.453 137.455L680.458 137.463L682.152 136.4ZM688.942 130.66L687.077 131.384L687.084 131.4L687.091 131.417L688.942 130.66ZM701.122 131.01L699.304 130.176L699.299 130.188L699.293 130.201L701.122 131.01ZM701.262 104.34L699.401 105.073L701.262 104.34ZM688.942 104.06L687.108 103.261L687.103 103.274L687.097 103.287L688.942 104.06ZM680.022 117.43C680.022 109.001 681.478 103.129 684.064 99.4755L680.799 97.1645C677.506 101.817 676.022 108.685 676.022 117.43H680.022ZM684.07 99.4669C686.605 95.8466 690.191 94.02 695.102 94.02V90.02C688.999 90.02 684.139 92.3934 680.793 97.1731L684.07 99.4669ZM695.102 94.02C700.451 94.02 704.073 95.8677 706.385 99.3551L709.719 97.1449C706.524 92.3256 701.513 90.02 695.102 90.02V94.02ZM706.391 99.3638C708.812 102.975 710.182 108.883 710.182 117.43H714.182C714.182 108.617 712.799 101.738 709.713 97.1362L706.391 99.3638ZM710.182 117.43C710.182 125.901 708.704 131.82 706.072 135.521L709.332 137.839C712.673 133.14 714.182 126.226 714.182 117.43H710.182ZM706.063 135.533C703.529 139.153 699.943 140.98 695.032 140.98V144.98C701.134 144.98 705.995 142.607 709.34 137.827L706.063 135.533ZM695.032 140.98C689.784 140.98 686.182 139.058 683.846 135.337L680.458 137.463C683.629 142.515 688.613 144.98 695.032 144.98V140.98ZM683.851 135.345C681.377 131.361 680.022 125.466 680.022 117.43H676.022C676.022 125.821 677.42 132.572 680.453 137.455L683.851 135.345ZM685.122 117.43C685.122 123.223 685.733 127.92 687.077 131.384L690.806 129.936C689.724 127.147 689.122 123.024 689.122 117.43H685.122ZM687.091 131.417C687.818 133.195 688.837 134.683 690.227 135.725C691.637 136.783 693.296 137.28 695.102 137.28V133.28C694.062 133.28 693.27 133.007 692.627 132.525C691.963 132.027 691.326 131.205 690.793 129.903L687.091 131.417ZM695.102 137.28C696.842 137.28 698.448 136.824 699.829 135.844C701.195 134.875 702.213 133.486 702.951 131.819L699.293 130.201C698.771 131.381 698.156 132.127 697.515 132.581C696.889 133.025 696.116 133.28 695.102 133.28V137.28ZM702.94 131.844C704.435 128.587 705.082 123.697 705.082 117.43H701.082C701.082 123.577 700.422 127.739 699.304 130.176L702.94 131.844ZM705.082 117.43C705.082 111.684 704.471 107.029 703.123 103.607L699.401 105.073C700.48 107.811 701.082 111.882 701.082 117.43H705.082ZM703.123 103.607C702.417 101.815 701.398 100.316 699.986 99.2685C698.556 98.2086 696.869 97.72 695.032 97.72V101.72C696.134 101.72 696.956 102.001 697.603 102.481C698.267 102.974 698.894 103.785 699.401 105.073L703.123 103.607ZM695.032 97.72C693.269 97.72 691.644 98.1822 690.249 99.1763C688.869 100.159 687.845 101.57 687.108 103.261L690.776 104.859C691.299 103.657 691.92 102.897 692.57 102.434C693.205 101.981 693.994 101.72 695.032 101.72V97.72ZM687.097 103.287C685.725 106.558 685.122 111.343 685.122 117.43H689.122C689.122 111.477 689.732 107.348 690.786 104.833L687.097 103.287ZM727.049 98.32L728.681 99.4755L728.687 99.4669L727.049 98.32ZM752.669 98.25L751.002 99.3551L751.007 99.3638L752.669 98.25ZM752.319 136.68L750.689 135.521L750.684 135.527L750.68 135.533L752.319 136.68ZM726.769 136.4L725.07 137.455L725.075 137.463L726.769 136.4ZM733.559 130.66L731.694 131.384L731.701 131.4L731.708 131.417L733.559 130.66ZM745.739 131.01L743.921 130.176L743.915 130.188L743.91 130.201L745.739 131.01ZM745.879 104.34L744.018 105.073L745.879 104.34ZM733.559 104.06L731.725 103.261L731.72 103.274L731.714 103.287L733.559 104.06ZM724.639 117.43C724.639 109.001 726.095 103.129 728.681 99.4755L725.416 97.1645C722.123 101.817 720.639 108.685 720.639 117.43H724.639ZM728.687 99.4669C731.221 95.8466 734.808 94.02 739.719 94.02V90.02C733.616 90.02 728.756 92.3934 725.41 97.1731L728.687 99.4669ZM739.719 94.02C745.068 94.02 748.69 95.8677 751.002 99.3551L754.336 97.1449C751.141 92.3256 746.13 90.02 739.719 90.02V94.02ZM751.007 99.3638C753.429 102.975 754.799 108.883 754.799 117.43H758.799C758.799 108.617 757.415 101.738 754.33 97.1362L751.007 99.3638ZM754.799 117.43C754.799 125.901 753.321 131.82 750.689 135.521L753.949 137.839C757.29 133.14 758.799 126.226 758.799 117.43H754.799ZM750.68 135.533C748.146 139.153 744.56 140.98 739.649 140.98V144.98C745.751 144.98 750.611 142.607 753.957 137.827L750.68 135.533ZM739.649 140.98C734.401 140.98 730.798 139.058 728.463 135.337L725.075 137.463C728.246 142.515 733.23 144.98 739.649 144.98V140.98ZM728.468 135.345C725.994 131.361 724.639 125.466 724.639 117.43H720.639C720.639 125.821 722.037 132.572 725.07 137.455L728.468 135.345ZM729.739 117.43C729.739 123.223 730.35 127.92 731.694 131.384L735.423 129.936C734.341 127.147 733.739 123.024 733.739 117.43H729.739ZM731.708 131.417C732.435 133.195 733.454 134.683 734.844 135.725C736.254 136.783 737.912 137.28 739.719 137.28V133.28C738.678 133.28 737.886 133.007 737.244 132.525C736.58 132.027 735.943 131.205 735.41 129.903L731.708 131.417ZM739.719 137.28C741.458 137.28 743.065 136.824 744.446 135.844C745.811 134.875 746.83 133.486 747.568 131.819L743.91 130.201C743.387 131.381 742.773 132.127 742.132 132.581C741.506 133.025 740.732 133.28 739.719 133.28V137.28ZM747.556 131.844C749.051 128.587 749.699 123.697 749.699 117.43H745.699C745.699 123.577 745.039 127.739 743.921 130.176L747.556 131.844ZM749.699 117.43C749.699 111.684 749.088 107.029 747.739 103.607L744.018 105.073C745.096 107.811 745.699 111.882 745.699 117.43H749.699ZM747.739 103.607C747.034 101.815 746.015 100.316 744.602 99.2685C743.173 98.2086 741.486 97.72 739.649 97.72V101.72C740.751 101.72 741.572 102.001 742.22 102.481C742.884 102.974 743.51 103.785 744.018 105.073L747.739 103.607ZM739.649 97.72C737.886 97.72 736.26 98.1822 734.865 99.1763C733.486 100.159 732.462 101.57 731.725 103.261L735.392 104.859C735.916 103.657 736.536 102.897 737.187 102.434C737.822 101.981 738.611 101.72 739.649 101.72V97.72ZM731.714 103.287C730.342 106.558 729.739 111.343 729.739 117.43H733.739C733.739 111.477 734.348 107.348 735.403 104.833L731.714 103.287ZM771.665 98.32L773.298 99.4755L773.304 99.4669L771.665 98.32ZM797.285 98.25L795.618 99.3551L795.624 99.3638L797.285 98.25ZM796.935 136.68L795.306 135.521L795.301 135.527L795.297 135.533L796.935 136.68ZM771.385 136.4L769.686 137.455L769.692 137.463L771.385 136.4ZM778.175 130.66L776.311 131.384L776.318 131.4L776.324 131.417L778.175 130.66ZM790.355 131.01L788.538 130.176L788.532 130.188L788.527 130.201L790.355 131.01ZM790.495 104.34L788.635 105.073L790.495 104.34ZM778.175 104.06L776.342 103.261L776.336 103.274L776.331 103.287L778.175 104.06ZM769.255 117.43C769.255 109.001 770.711 103.129 773.298 99.4755L770.033 97.1645C766.74 101.817 765.255 108.685 765.255 117.43H769.255ZM773.304 99.4669C775.838 95.8466 779.425 94.02 784.335 94.02V90.02C778.233 90.02 773.373 92.3934 770.027 97.1731L773.304 99.4669ZM784.335 94.02C789.684 94.02 793.307 95.8677 795.618 99.3551L798.952 97.1449C795.758 92.3256 790.746 90.02 784.335 90.02V94.02ZM795.624 99.3638C798.045 102.975 799.415 108.883 799.415 117.43H803.415C803.415 108.617 802.032 101.738 798.947 97.1362L795.624 99.3638ZM799.415 117.43C799.415 125.901 797.938 131.82 795.306 135.521L798.565 137.839C801.907 133.14 803.415 126.226 803.415 117.43H799.415ZM795.297 135.533C792.763 139.153 789.176 140.98 784.265 140.98V144.98C790.368 144.98 795.228 142.607 798.574 137.827L795.297 135.533ZM784.265 140.98C779.017 140.98 775.415 139.058 773.079 135.337L769.692 137.463C772.862 142.515 777.847 144.98 784.265 144.98V140.98ZM773.084 135.345C770.61 131.361 769.255 125.466 769.255 117.43H765.255C765.255 125.821 766.654 132.572 769.686 137.455L773.084 135.345ZM774.355 117.43C774.355 123.223 774.967 127.92 776.311 131.384L780.04 129.936C778.958 127.147 778.355 123.024 778.355 117.43H774.355ZM776.324 131.417C777.052 133.195 778.071 134.683 779.46 135.725C780.871 136.783 782.529 137.28 784.335 137.28V133.28C783.295 133.28 782.503 133.007 781.86 132.525C781.197 132.027 780.559 131.205 780.027 129.903L776.324 131.417ZM784.335 137.28C786.075 137.28 787.681 136.824 789.063 135.844C790.428 134.875 791.447 133.486 792.184 131.819L788.527 130.201C788.004 131.381 787.389 132.127 786.748 132.581C786.123 133.025 785.349 133.28 784.335 133.28V137.28ZM792.173 131.844C793.668 128.587 794.315 123.697 794.315 117.43H790.315C790.315 123.577 789.656 127.739 788.538 130.176L792.173 131.844ZM794.315 117.43C794.315 111.684 793.704 107.029 792.356 103.607L788.635 105.073C789.713 107.811 790.315 111.882 790.315 117.43H794.315ZM792.356 103.607C791.65 101.815 790.632 100.316 789.219 99.2685C787.79 98.2086 786.103 97.72 784.265 97.72V101.72C785.368 101.72 786.189 102.001 786.837 102.481C787.501 102.974 788.127 103.785 788.635 105.073L792.356 103.607ZM784.265 97.72C782.503 97.72 780.877 98.1822 779.482 99.1763C778.103 100.159 777.079 101.57 776.342 103.261L780.009 104.859C780.532 103.657 781.153 102.897 781.804 102.434C782.439 101.981 783.228 101.72 784.265 101.72V97.72ZM776.331 103.287C774.959 106.558 774.355 111.343 774.355 117.43H778.355C778.355 111.477 778.965 107.348 780.02 104.833L776.331 103.287ZM812.082 114.42V112.42H810.082V114.42H812.082ZM823.422 114.42V116.42H825.422V114.42H823.422ZM823.422 102.59V100.59H821.422V102.59H823.422ZM831.612 102.59H833.612V100.59H831.612V102.59ZM831.612 114.42H829.612V116.42H831.612V114.42ZM843.022 114.42H845.022V112.42H843.022V114.42ZM843.022 122.26V124.26H845.022V122.26H843.022ZM831.612 122.26V120.26H829.612V122.26H831.612ZM831.612 134.23V136.23H833.612V134.23H831.612ZM823.422 134.23H821.422V136.23H823.422V134.23ZM823.422 122.26H825.422V120.26H823.422V122.26ZM812.082 122.26H810.082V124.26H812.082V122.26ZM812.082 116.42H823.422V112.42H812.082V116.42ZM825.422 114.42V102.59H821.422V114.42H825.422ZM823.422 104.59H831.612V100.59H823.422V104.59ZM829.612 102.59V114.42H833.612V102.59H829.612ZM831.612 116.42H843.022V112.42H831.612V116.42ZM841.022 114.42V122.26H845.022V114.42H841.022ZM843.022 120.26H831.612V124.26H843.022V120.26ZM829.612 122.26V134.23H833.612V122.26H829.612ZM831.612 132.23H823.422V136.23H831.612V132.23ZM825.422 134.23V122.26H821.422V134.23H825.422ZM823.422 120.26H812.082V124.26H823.422V120.26ZM814.082 122.26V114.42H810.082V122.26H814.082Z" fill="white" mask="url(#path-9-outside-2_3_8357)"/>
<path d="M620.748 171.942C621.888 172.326 622.458 173.094 622.458 174.246C622.458 175.122 622.128 175.8 621.468 176.28C620.808 176.76 619.824 177 618.516 177H613.35V167.316H618.3C619.512 167.316 620.46 167.538 621.144 167.982C621.828 168.414 622.17 169.026 622.17 169.818C622.17 170.298 622.044 170.724 621.792 171.096C621.552 171.456 621.204 171.738 620.748 171.942ZM615.924 171.294H618.048C619.032 171.294 619.524 170.946 619.524 170.25C619.524 169.566 619.032 169.224 618.048 169.224H615.924V171.294ZM618.282 175.092C619.314 175.092 619.83 174.738 619.83 174.03C619.83 173.658 619.71 173.388 619.47 173.22C619.23 173.04 618.852 172.95 618.336 172.95H615.924V175.092H618.282ZM629.641 170.412C630.901 170.424 631.855 170.706 632.503 171.258C633.151 171.81 633.475 172.602 633.475 173.634C633.475 174.714 633.109 175.548 632.377 176.136C631.645 176.724 630.607 177.018 629.263 177.018L624.547 177V167.316H627.337V170.412H629.641ZM634.519 167.316H637.309V177H634.519V167.316ZM629.011 175.02C629.551 175.032 629.965 174.918 630.253 174.678C630.541 174.438 630.685 174.078 630.685 173.598C630.685 173.13 630.541 172.788 630.253 172.572C629.977 172.356 629.563 172.242 629.011 172.23L627.337 172.212V175.02H629.011ZM649.646 167.316V177H646.838V169.62H642.806V177H640.016V167.316H649.646ZM656.874 177.144C655.854 177.144 654.936 176.934 654.12 176.514C653.316 176.082 652.686 175.488 652.23 174.732C651.774 173.976 651.546 173.118 651.546 172.158C651.546 171.198 651.774 170.34 652.23 169.584C652.686 168.828 653.316 168.24 654.12 167.82C654.936 167.388 655.854 167.172 656.874 167.172C657.894 167.172 658.806 167.388 659.61 167.82C660.414 168.24 661.044 168.828 661.5 169.584C661.956 170.34 662.184 171.198 662.184 172.158C662.184 173.118 661.956 173.976 661.5 174.732C661.044 175.488 660.414 176.082 659.61 176.514C658.806 176.934 657.894 177.144 656.874 177.144ZM656.874 174.84C657.594 174.84 658.182 174.6 658.638 174.12C659.106 173.628 659.34 172.974 659.34 172.158C659.34 171.342 659.106 170.694 658.638 170.214C658.182 169.722 657.594 169.476 656.874 169.476C656.154 169.476 655.56 169.722 655.092 170.214C654.624 170.694 654.39 171.342 654.39 172.158C654.39 172.974 654.624 173.628 655.092 174.12C655.56 174.6 656.154 174.84 656.874 174.84ZM673.263 167.316V177H670.455V169.62H667.395L667.305 171.33C667.257 172.602 667.137 173.658 666.945 174.498C666.753 175.338 666.441 175.998 666.009 176.478C665.577 176.958 664.977 177.198 664.209 177.198C663.801 177.198 663.315 177.126 662.751 176.982L662.895 174.678C663.087 174.702 663.225 174.714 663.309 174.714C663.729 174.714 664.041 174.564 664.245 174.264C664.461 173.952 664.605 173.562 664.677 173.094C664.749 172.614 664.803 171.984 664.839 171.204L664.983 167.316H673.263ZM675.963 167.316H678.753V171.096H682.965V167.316H685.773V177H682.965V173.382H678.753V177H675.963V167.316ZM697.875 172.194C697.875 172.23 697.857 172.482 697.821 172.95H690.495C690.627 173.55 690.939 174.024 691.431 174.372C691.923 174.72 692.535 174.894 693.267 174.894C693.771 174.894 694.215 174.822 694.599 174.678C694.995 174.522 695.361 174.282 695.697 173.958L697.191 175.578C696.279 176.622 694.947 177.144 693.195 177.144C692.103 177.144 691.137 176.934 690.297 176.514C689.457 176.082 688.809 175.488 688.353 174.732C687.897 173.976 687.669 173.118 687.669 172.158C687.669 171.21 687.891 170.358 688.335 169.602C688.791 168.834 689.409 168.24 690.189 167.82C690.981 167.388 691.863 167.172 692.835 167.172C693.783 167.172 694.641 167.376 695.409 167.784C696.177 168.192 696.777 168.78 697.209 169.548C697.653 170.304 697.875 171.186 697.875 172.194ZM692.853 169.296C692.217 169.296 691.683 169.476 691.251 169.836C690.819 170.196 690.555 170.688 690.459 171.312H695.229C695.133 170.7 694.869 170.214 694.437 169.854C694.005 169.482 693.477 169.296 692.853 169.296ZM700.028 167.316H702.818V171.096H707.03V167.316H709.838V177H707.03V173.382H702.818V177H700.028V167.316ZM712.526 167.316H715.316V171.096H719.528V167.316H722.336V177H719.528V173.382H715.316V177H712.526V167.316ZM730.118 170.412C731.378 170.424 732.332 170.706 732.98 171.258C733.628 171.81 733.952 172.602 733.952 173.634C733.952 174.714 733.586 175.548 732.854 176.136C732.122 176.724 731.084 177.018 729.74 177.018L725.024 177V167.316H727.814V170.412H730.118ZM734.996 167.316H737.786V177H734.996V167.316ZM729.488 175.02C730.028 175.032 730.442 174.918 730.73 174.678C731.018 174.438 731.162 174.078 731.162 173.598C731.162 173.13 731.018 172.788 730.73 172.572C730.454 172.356 730.04 172.242 729.488 172.23L727.814 172.212V175.02H729.488ZM746.577 177L744.453 174.03L742.257 177H739.197L742.923 172.122L739.323 167.316H742.473L744.525 170.142L746.631 167.316H749.619L746.019 172.05L749.763 177H746.577ZM765.873 167.316V177H763.065V169.62H759.033V177H756.243V167.316H765.873ZM774.271 167.172C775.171 167.172 775.987 167.382 776.719 167.802C777.463 168.21 778.045 168.792 778.465 169.548C778.885 170.292 779.095 171.162 779.095 172.158C779.095 173.154 778.885 174.03 778.465 174.786C778.045 175.53 777.463 176.112 776.719 176.532C775.987 176.94 775.171 177.144 774.271 177.144C773.035 177.144 772.063 176.754 771.355 175.974V180.492H768.547V167.316H771.229V168.432C771.925 167.592 772.939 167.172 774.271 167.172ZM773.785 174.84C774.505 174.84 775.093 174.6 775.549 174.12C776.017 173.628 776.251 172.974 776.251 172.158C776.251 171.342 776.017 170.694 775.549 170.214C775.093 169.722 774.505 169.476 773.785 169.476C773.065 169.476 772.471 169.722 772.003 170.214C771.547 170.694 771.319 171.342 771.319 172.158C771.319 172.974 771.547 173.628 772.003 174.12C772.471 174.6 773.065 174.84 773.785 174.84ZM785.599 177.144C784.579 177.144 783.661 176.934 782.845 176.514C782.041 176.082 781.411 175.488 780.955 174.732C780.499 173.976 780.271 173.118 780.271 172.158C780.271 171.198 780.499 170.34 780.955 169.584C781.411 168.828 782.041 168.24 782.845 167.82C783.661 167.388 784.579 167.172 785.599 167.172C786.619 167.172 787.531 167.388 788.335 167.82C789.139 168.24 789.769 168.828 790.225 169.584C790.681 170.34 790.909 171.198 790.909 172.158C790.909 173.118 790.681 173.976 790.225 174.732C789.769 175.488 789.139 176.082 788.335 176.514C787.531 176.934 786.619 177.144 785.599 177.144ZM785.599 174.84C786.319 174.84 786.907 174.6 787.363 174.12C787.831 173.628 788.065 172.974 788.065 172.158C788.065 171.342 787.831 170.694 787.363 170.214C786.907 169.722 786.319 169.476 785.599 169.476C784.879 169.476 784.285 169.722 783.817 170.214C783.349 170.694 783.115 171.342 783.115 172.158C783.115 172.974 783.349 173.628 783.817 174.12C784.285 174.6 784.879 174.84 785.599 174.84ZM802.254 172.194C802.254 172.23 802.236 172.482 802.2 172.95H794.874C795.006 173.55 795.318 174.024 795.81 174.372C796.302 174.72 796.914 174.894 797.646 174.894C798.15 174.894 798.594 174.822 798.978 174.678C799.374 174.522 799.74 174.282 800.076 173.958L801.57 175.578C800.658 176.622 799.326 177.144 797.574 177.144C796.482 177.144 795.516 176.934 794.676 176.514C793.836 176.082 793.188 175.488 792.732 174.732C792.276 173.976 792.048 173.118 792.048 172.158C792.048 171.21 792.27 170.358 792.714 169.602C793.17 168.834 793.788 168.24 794.568 167.82C795.36 167.388 796.242 167.172 797.214 167.172C798.162 167.172 799.02 167.376 799.788 167.784C800.556 168.192 801.156 168.78 801.588 169.548C802.032 170.304 802.254 171.186 802.254 172.194ZM797.232 169.296C796.596 169.296 796.062 169.476 795.63 169.836C795.198 170.196 794.934 170.688 794.838 171.312H799.608C799.512 170.7 799.248 170.214 798.816 169.854C798.384 169.482 797.856 169.296 797.232 169.296ZM808.673 173.328H807.215V177H804.407V167.316H807.215V171.078H808.727L811.355 167.316H814.343L810.959 171.96L814.577 177H811.265L808.673 173.328ZM824.004 169.62H820.728V177H817.938V169.62H814.662V167.316H824.004V169.62ZM829.632 177.144C828.612 177.144 827.694 176.934 826.878 176.514C826.074 176.082 825.444 175.488 824.988 174.732C824.532 173.976 824.304 173.118 824.304 172.158C824.304 171.198 824.532 170.34 824.988 169.584C825.444 168.828 826.074 168.24 826.878 167.82C827.694 167.388 828.612 167.172 829.632 167.172C830.652 167.172 831.564 167.388 832.368 167.82C833.172 168.24 833.802 168.828 834.258 169.584C834.714 170.34 834.942 171.198 834.942 172.158C834.942 173.118 834.714 173.976 834.258 174.732C833.802 175.488 833.172 176.082 832.368 176.514C831.564 176.934 830.652 177.144 829.632 177.144ZM829.632 174.84C830.352 174.84 830.94 174.6 831.396 174.12C831.864 173.628 832.098 172.974 832.098 172.158C832.098 171.342 831.864 170.694 831.396 170.214C830.94 169.722 830.352 169.476 829.632 169.476C828.912 169.476 828.318 169.722 827.85 170.214C827.382 170.694 827.148 171.342 827.148 172.158C827.148 172.974 827.382 173.628 827.85 174.12C828.318 174.6 828.912 174.84 829.632 174.84ZM844.271 171.942C845.411 172.326 845.981 173.094 845.981 174.246C845.981 175.122 845.651 175.8 844.991 176.28C844.331 176.76 843.347 177 842.039 177H836.873V167.316H841.823C843.035 167.316 843.983 167.538 844.667 167.982C845.351 168.414 845.693 169.026 845.693 169.818C845.693 170.298 845.567 170.724 845.315 171.096C845.075 171.456 844.727 171.738 844.271 171.942ZM839.447 171.294H841.571C842.555 171.294 843.047 170.946 843.047 170.25C843.047 169.566 842.555 169.224 841.571 169.224H839.447V171.294ZM841.805 175.092C842.837 175.092 843.353 174.738 843.353 174.03C843.353 173.658 843.233 173.388 842.993 173.22C842.753 173.04 842.375 172.95 841.859 172.95H839.447V175.092H841.805Z" fill="white"/>
<mask id="path-12-outside-3_3_8357" maskUnits="userSpaceOnUse" x="1123" y="90" width="124" height="55" fill="black">
<rect fill="white" x="1123" y="90" width="124" height="55"/>
<path d="M1154.25 104.97C1154.25 107.35 1153.81 109.753 1152.92 112.18C1152.08 114.607 1150.98 116.987 1149.63 119.32C1148.32 121.653 1146.85 123.917 1145.22 126.11C1143.63 128.257 1142.07 130.24 1140.53 132.06L1136.82 134.93V135.28L1141.86 134.3H1155.3V142H1125.83V137.31C1126.95 136.143 1128.21 134.79 1129.61 133.25C1131.01 131.663 1132.41 130.007 1133.81 128.28C1135.26 126.507 1136.66 124.687 1138.01 122.82C1139.36 120.953 1140.58 119.087 1141.65 117.22C1142.72 115.307 1143.56 113.463 1144.17 111.69C1144.82 109.917 1145.15 108.237 1145.15 106.65C1145.15 104.737 1144.59 103.173 1143.47 101.96C1142.4 100.7 1140.67 100.07 1138.29 100.07C1136.8 100.07 1135.26 100.397 1133.67 101.05C1132.13 101.657 1130.82 102.45 1129.75 103.43L1126.11 96.99C1127.93 95.4967 1129.98 94.3067 1132.27 93.42C1134.6 92.4867 1137.33 92.02 1140.46 92.02C1142.47 92.02 1144.31 92.3 1145.99 92.86C1147.67 93.42 1149.12 94.2367 1150.33 95.31C1151.54 96.3833 1152.5 97.7367 1153.2 99.37C1153.9 100.957 1154.25 102.823 1154.25 104.97ZM1168.42 117.43C1168.42 108.843 1169.89 102.473 1172.83 98.32C1175.77 94.12 1179.99 92.02 1185.5 92.02C1191.38 92.02 1195.69 94.0967 1198.45 98.25C1201.2 102.357 1202.58 108.75 1202.58 117.43C1202.58 126.063 1201.08 132.48 1198.1 136.68C1195.16 140.88 1190.93 142.98 1185.43 142.98C1179.59 142.98 1175.3 140.787 1172.55 136.4C1169.79 131.967 1168.42 125.643 1168.42 117.43ZM1177.52 117.43C1177.52 123.123 1178.12 127.533 1179.34 130.66C1180.6 133.74 1182.65 135.28 1185.5 135.28C1188.25 135.28 1190.26 133.857 1191.52 131.01C1192.82 128.163 1193.48 123.637 1193.48 117.43C1193.48 111.783 1192.87 107.42 1191.66 104.34C1190.44 101.26 1188.37 99.72 1185.43 99.72C1182.63 99.72 1180.6 101.167 1179.34 104.06C1178.12 106.953 1177.52 111.41 1177.52 117.43ZM1213.24 114.42H1224.58V102.59H1232.77V114.42H1244.18V122.26H1232.77V134.23H1224.58V122.26H1213.24V114.42Z"/>
</mask>
<path d="M1152.92 112.18L1151.04 111.494L1151.04 111.51L1151.03 111.526L1152.92 112.18ZM1149.63 119.32L1147.9 118.317L1147.89 118.33L1147.88 118.343L1149.63 119.32ZM1145.22 126.11L1143.62 124.915L1143.61 124.921L1145.22 126.11ZM1140.53 132.06L1141.75 133.642L1141.92 133.513L1142.06 133.352L1140.53 132.06ZM1136.82 134.93L1135.6 133.348L1134.82 133.949V134.93H1136.82ZM1136.82 135.28H1134.82V137.706L1137.2 137.243L1136.82 135.28ZM1141.86 134.3V132.3H1141.67L1141.48 132.337L1141.86 134.3ZM1155.3 134.3H1157.3V132.3H1155.3V134.3ZM1155.3 142V144H1157.3V142H1155.3ZM1125.83 142H1123.83V144H1125.83V142ZM1125.83 137.31L1124.39 135.925L1123.83 136.505V137.31H1125.83ZM1129.61 133.25L1131.09 134.595L1131.1 134.584L1131.11 134.573L1129.61 133.25ZM1133.81 128.28L1132.26 127.016L1132.26 127.02L1133.81 128.28ZM1138.01 122.82L1136.39 121.646L1138.01 122.82ZM1141.65 117.22L1143.38 118.217L1143.39 118.208L1143.39 118.199L1141.65 117.22ZM1144.17 111.69L1142.29 110.999L1142.29 111.021L1142.28 111.043L1144.17 111.69ZM1143.47 101.96L1141.95 103.257L1141.97 103.287L1142 103.317L1143.47 101.96ZM1133.67 101.05L1134.4 102.911L1134.42 102.905L1134.43 102.899L1133.67 101.05ZM1129.75 103.43L1128.01 104.414L1129.24 106.6L1131.1 104.907L1129.75 103.43ZM1126.11 96.99L1124.84 95.4439L1123.54 96.5104L1124.37 97.9741L1126.11 96.99ZM1132.27 93.42L1132.99 95.2847L1133 95.2809L1133.01 95.277L1132.27 93.42ZM1145.99 92.86L1145.36 94.7574L1145.36 94.7574L1145.99 92.86ZM1150.33 95.31L1151.66 93.812V93.812L1150.33 95.31ZM1153.2 99.37L1151.36 100.158L1151.37 100.168L1151.37 100.177L1153.2 99.37ZM1152.25 104.97C1152.25 107.097 1151.85 109.268 1151.04 111.494L1154.8 112.866C1155.76 110.239 1156.25 107.603 1156.25 104.97H1152.25ZM1151.03 111.526C1150.23 113.825 1149.19 116.089 1147.9 118.317L1151.36 120.323C1152.77 117.885 1153.93 115.388 1154.81 112.834L1151.03 111.526ZM1147.88 118.343C1146.62 120.599 1145.2 122.79 1143.62 124.915L1146.82 127.305C1148.51 125.043 1150.03 122.708 1151.38 120.297L1147.88 118.343ZM1143.61 124.921C1142.05 127.037 1140.51 128.985 1139 130.768L1142.06 133.352C1143.63 131.495 1145.22 129.477 1146.83 127.299L1143.61 124.921ZM1139.31 130.478L1135.6 133.348L1138.04 136.512L1141.75 133.642L1139.31 130.478ZM1134.82 134.93V135.28H1138.82V134.93H1134.82ZM1137.2 137.243L1142.24 136.263L1141.48 132.337L1136.44 133.317L1137.2 137.243ZM1141.86 136.3H1155.3V132.3H1141.86V136.3ZM1153.3 134.3V142H1157.3V134.3H1153.3ZM1155.3 140H1125.83V144H1155.3V140ZM1127.83 142V137.31H1123.83V142H1127.83ZM1127.27 138.695C1128.41 137.512 1129.68 136.145 1131.09 134.595L1128.13 131.905C1126.74 133.435 1125.49 134.774 1124.39 135.925L1127.27 138.695ZM1131.11 134.573C1132.53 132.965 1133.95 131.287 1135.36 129.54L1132.26 127.02C1130.87 128.727 1129.49 130.362 1128.11 131.927L1131.11 134.573ZM1135.36 129.544C1136.83 127.741 1138.25 125.891 1139.63 123.994L1136.39 121.646C1135.06 123.482 1133.68 125.272 1132.26 127.016L1135.36 129.544ZM1139.63 123.994C1141.02 122.074 1142.27 120.149 1143.38 118.217L1139.92 116.223C1138.88 118.025 1137.71 119.832 1136.39 121.646L1139.63 123.994ZM1143.39 118.199C1144.52 116.197 1145.41 114.243 1146.06 112.337L1142.28 111.043C1141.72 112.684 1140.93 114.416 1139.91 116.241L1143.39 118.199ZM1146.05 112.381C1146.77 110.428 1147.15 108.513 1147.15 106.65H1143.15C1143.15 107.96 1142.88 109.405 1142.29 110.999L1146.05 112.381ZM1147.15 106.65C1147.15 104.319 1146.45 102.244 1144.94 100.603L1142 103.317C1142.73 104.102 1143.15 105.154 1143.15 106.65H1147.15ZM1144.99 100.663C1143.4 98.7887 1140.99 98.07 1138.29 98.07V102.07C1140.35 102.07 1141.4 102.611 1141.95 103.257L1144.99 100.663ZM1138.29 98.07C1136.5 98.07 1134.7 98.4625 1132.91 99.2006L1134.43 102.899C1135.81 102.331 1137.09 102.07 1138.29 102.07V98.07ZM1132.94 99.1892C1131.2 99.8729 1129.68 100.787 1128.4 101.953L1131.1 104.907C1131.97 104.113 1133.06 103.44 1134.4 102.911L1132.94 99.1892ZM1131.49 102.446L1127.85 96.0059L1124.37 97.9741L1128.01 104.414L1131.49 102.446ZM1127.38 98.5361C1129.03 97.1828 1130.9 96.098 1132.99 95.2847L1131.55 91.5553C1129.07 92.5153 1126.83 93.8105 1124.84 95.4439L1127.38 98.5361ZM1133.01 95.277C1135.06 94.4581 1137.53 94.02 1140.46 94.02V90.02C1137.14 90.02 1134.15 90.5152 1131.53 91.563L1133.01 95.277ZM1140.46 94.02C1142.28 94.02 1143.91 94.2737 1145.36 94.7574L1146.62 90.9626C1144.71 90.3263 1142.65 90.02 1140.46 90.02V94.02ZM1145.36 94.7574C1146.81 95.2402 1148.01 95.9291 1149 96.808L1151.66 93.812C1150.22 92.5443 1148.53 91.5998 1146.62 90.9626L1145.36 94.7574ZM1149 96.808C1149.98 97.6671 1150.77 98.7696 1151.36 100.158L1155.04 98.5822C1154.23 96.7038 1153.11 95.0996 1151.66 93.812L1149 96.808ZM1151.37 100.177C1151.93 101.457 1152.25 103.037 1152.25 104.97H1156.25C1156.25 102.61 1155.87 100.457 1155.03 98.5627L1151.37 100.177ZM1172.83 98.32L1174.46 99.4755L1174.47 99.4669L1172.83 98.32ZM1198.45 98.25L1196.78 99.3551L1196.79 99.3638L1198.45 98.25ZM1198.1 136.68L1196.47 135.521L1196.46 135.527L1196.46 135.533L1198.1 136.68ZM1172.55 136.4L1170.85 137.455L1170.85 137.463L1172.55 136.4ZM1179.34 130.66L1177.47 131.384L1177.48 131.4L1177.49 131.417L1179.34 130.66ZM1191.52 131.01L1189.7 130.176L1189.69 130.188L1189.69 130.201L1191.52 131.01ZM1191.66 104.34L1189.8 105.073L1191.66 104.34ZM1179.34 104.06L1177.5 103.261L1177.5 103.274L1177.49 103.287L1179.34 104.06ZM1170.42 117.43C1170.42 109.001 1171.87 103.129 1174.46 99.4755L1171.19 97.1645C1167.9 101.817 1166.42 108.685 1166.42 117.43H1170.42ZM1174.47 99.4669C1177 95.8466 1180.59 94.02 1185.5 94.02V90.02C1179.39 90.02 1174.53 92.3934 1171.19 97.1731L1174.47 99.4669ZM1185.5 94.02C1190.85 94.02 1194.47 95.8677 1196.78 99.3551L1200.11 97.1449C1196.92 92.3256 1191.91 90.02 1185.5 90.02V94.02ZM1196.79 99.3638C1199.21 102.975 1200.58 108.883 1200.58 117.43H1204.58C1204.58 108.617 1203.19 101.738 1200.11 97.1362L1196.79 99.3638ZM1200.58 117.43C1200.58 125.901 1199.1 131.82 1196.47 135.521L1199.73 137.839C1203.07 133.14 1204.58 126.226 1204.58 117.43H1200.58ZM1196.46 135.533C1193.92 139.153 1190.34 140.98 1185.43 140.98V144.98C1191.53 144.98 1196.39 142.607 1199.74 137.827L1196.46 135.533ZM1185.43 140.98C1180.18 140.98 1176.58 139.058 1174.24 135.337L1170.85 137.463C1174.02 142.515 1179.01 144.98 1185.43 144.98V140.98ZM1174.25 135.345C1171.77 131.361 1170.42 125.466 1170.42 117.43H1166.42C1166.42 125.821 1167.82 132.572 1170.85 137.455L1174.25 135.345ZM1175.52 117.43C1175.52 123.223 1176.13 127.92 1177.47 131.384L1181.2 129.936C1180.12 127.147 1179.52 123.024 1179.52 117.43H1175.52ZM1177.49 131.417C1178.21 133.195 1179.23 134.683 1180.62 135.725C1182.03 136.783 1183.69 137.28 1185.5 137.28V133.28C1184.46 133.28 1183.66 133.007 1183.02 132.525C1182.36 132.027 1181.72 131.205 1181.19 129.903L1177.49 131.417ZM1185.5 137.28C1187.24 137.28 1188.84 136.824 1190.22 135.844C1191.59 134.875 1192.61 133.486 1193.35 131.819L1189.69 130.201C1189.17 131.381 1188.55 132.127 1187.91 132.581C1187.28 133.025 1186.51 133.28 1185.5 133.28V137.28ZM1193.33 131.844C1194.83 128.587 1195.48 123.697 1195.48 117.43H1191.48C1191.48 123.577 1190.82 127.739 1189.7 130.176L1193.33 131.844ZM1195.48 117.43C1195.48 111.684 1194.87 107.029 1193.52 103.607L1189.8 105.073C1190.87 107.811 1191.48 111.882 1191.48 117.43H1195.48ZM1193.52 103.607C1192.81 101.815 1191.79 100.316 1190.38 99.2685C1188.95 98.2086 1187.26 97.72 1185.43 97.72V101.72C1186.53 101.72 1187.35 102.001 1188 102.481C1188.66 102.974 1189.29 103.785 1189.8 105.073L1193.52 103.607ZM1185.43 97.72C1183.66 97.72 1182.04 98.1822 1180.64 99.1763C1179.26 100.159 1178.24 101.57 1177.5 103.261L1181.17 104.859C1181.69 103.657 1182.31 102.897 1182.97 102.434C1183.6 101.981 1184.39 101.72 1185.43 101.72V97.72ZM1177.49 103.287C1176.12 106.558 1175.52 111.343 1175.52 117.43H1179.52C1179.52 111.477 1180.13 107.348 1181.18 104.833L1177.49 103.287ZM1213.24 114.42V112.42H1211.24V114.42H1213.24ZM1224.58 114.42V116.42H1226.58V114.42H1224.58ZM1224.58 102.59V100.59H1222.58V102.59H1224.58ZM1232.77 102.59H1234.77V100.59H1232.77V102.59ZM1232.77 114.42H1230.77V116.42H1232.77V114.42ZM1244.18 114.42H1246.18V112.42H1244.18V114.42ZM1244.18 122.26V124.26H1246.18V122.26H1244.18ZM1232.77 122.26V120.26H1230.77V122.26H1232.77ZM1232.77 134.23V136.23H1234.77V134.23H1232.77ZM1224.58 134.23H1222.58V136.23H1224.58V134.23ZM1224.58 122.26H1226.58V120.26H1224.58V122.26ZM1213.24 122.26H1211.24V124.26H1213.24V122.26ZM1213.24 116.42H1224.58V112.42H1213.24V116.42ZM1226.58 114.42V102.59H1222.58V114.42H1226.58ZM1224.58 104.59H1232.77V100.59H1224.58V104.59ZM1230.77 102.59V114.42H1234.77V102.59H1230.77ZM1232.77 116.42H1244.18V112.42H1232.77V116.42ZM1242.18 114.42V122.26H1246.18V114.42H1242.18ZM1244.18 120.26H1232.77V124.26H1244.18V120.26ZM1230.77 122.26V134.23H1234.77V122.26H1230.77ZM1232.77 132.23H1224.58V136.23H1232.77V132.23ZM1226.58 134.23V122.26H1222.58V134.23H1226.58ZM1224.58 120.26H1213.24V124.26H1224.58V120.26ZM1215.24 122.26V114.42H1211.24V122.26H1215.24Z" fill="white" mask="url(#path-12-outside-3_3_8357)"/>
<path d="M1072.55 172.194C1072.55 172.23 1072.53 172.482 1072.5 172.95H1065.17C1065.3 173.55 1065.61 174.024 1066.11 174.372C1066.6 174.72 1067.21 174.894 1067.94 174.894C1068.45 174.894 1068.89 174.822 1069.27 174.678C1069.67 174.522 1070.04 174.282 1070.37 173.958L1071.87 175.578C1070.95 176.622 1069.62 177.144 1067.87 177.144C1066.78 177.144 1065.81 176.934 1064.97 176.514C1064.13 176.082 1063.48 175.488 1063.03 174.732C1062.57 173.976 1062.34 173.118 1062.34 172.158C1062.34 171.21 1062.57 170.358 1063.01 169.602C1063.47 168.834 1064.08 168.24 1064.86 167.82C1065.66 167.388 1066.54 167.172 1067.51 167.172C1068.46 167.172 1069.32 167.376 1070.08 167.784C1070.85 168.192 1071.45 168.78 1071.88 169.548C1072.33 170.304 1072.55 171.186 1072.55 172.194ZM1067.53 169.296C1066.89 169.296 1066.36 169.476 1065.93 169.836C1065.49 170.196 1065.23 170.688 1065.13 171.312H1069.9C1069.81 170.7 1069.54 170.214 1069.11 169.854C1068.68 169.482 1068.15 169.296 1067.53 169.296ZM1085.47 174.696V179.088H1082.86V177H1076.05V179.088H1073.44V174.696H1073.84C1074.44 174.684 1074.85 174.33 1075.08 173.634C1075.31 172.938 1075.45 171.948 1075.51 170.664L1075.64 167.316H1084.08V174.696H1085.47ZM1078.05 170.862C1078.02 171.846 1077.94 172.65 1077.82 173.274C1077.71 173.898 1077.5 174.372 1077.19 174.696H1081.27V169.62H1078.11L1078.05 170.862ZM1087.23 167.316H1090.02V173.076L1094.74 167.316H1097.31V177H1094.52V171.24L1089.83 177H1087.23V167.316ZM1100.01 167.316H1102.8V171.096H1107.02V167.316H1109.82V177H1107.02V173.382H1102.8V177H1100.01V167.316ZM1112.51 167.316H1115.3V173.076L1120.02 167.316H1122.59V177H1119.8V171.24L1115.1 177H1112.51V167.316ZM1136.2 174.696V179.124H1133.59V177H1125.29V167.316H1128.08V174.696H1131.99V167.316H1134.8V174.696H1136.2ZM1151.2 169.62H1147.92V177H1145.13V169.62H1141.86V167.316H1151.2V169.62ZM1161.71 172.194C1161.71 172.23 1161.69 172.482 1161.65 172.95H1154.33C1154.46 173.55 1154.77 174.024 1155.26 174.372C1155.75 174.72 1156.37 174.894 1157.1 174.894C1157.6 174.894 1158.05 174.822 1158.43 174.678C1158.83 174.522 1159.19 174.282 1159.53 173.958L1161.02 175.578C1160.11 176.622 1158.78 177.144 1157.03 177.144C1155.93 177.144 1154.97 176.934 1154.13 176.514C1153.29 176.082 1152.64 175.488 1152.18 174.732C1151.73 173.976 1151.5 173.118 1151.5 172.158C1151.5 171.21 1151.72 170.358 1152.17 169.602C1152.62 168.834 1153.24 168.24 1154.02 167.82C1154.81 167.388 1155.69 167.172 1156.67 167.172C1157.61 167.172 1158.47 167.376 1159.24 167.784C1160.01 168.192 1160.61 168.78 1161.04 169.548C1161.48 170.304 1161.71 171.186 1161.71 172.194ZM1156.68 169.296C1156.05 169.296 1155.51 169.476 1155.08 169.836C1154.65 170.196 1154.39 170.688 1154.29 171.312H1159.06C1158.96 170.7 1158.7 170.214 1158.27 169.854C1157.84 169.482 1157.31 169.296 1156.68 169.296ZM1169.68 177L1167.55 174.03L1165.36 177H1162.3L1166.02 172.122L1162.42 167.316H1165.57L1167.63 170.142L1169.73 167.316H1172.72L1169.12 172.05L1172.86 177H1169.68ZM1174.25 167.316H1177.04V171.096H1181.25V167.316H1184.06V177H1181.25V173.382H1177.04V177H1174.25V167.316ZM1186.74 167.316H1189.53V173.076L1194.25 167.316H1196.82V177H1194.03V171.24L1189.34 177H1186.74V167.316ZM1203.79 173.328H1202.33V177H1199.52V167.316H1202.33V171.078H1203.84L1206.47 167.316H1209.46L1206.08 171.96L1209.69 177H1206.38L1203.79 173.328ZM1211.07 167.316H1213.86V173.076L1218.58 167.316H1221.15V177H1218.36V171.24L1213.66 177H1211.07V167.316ZM1236.35 171.942C1237.49 172.326 1238.06 173.094 1238.06 174.246C1238.06 175.122 1237.73 175.8 1237.07 176.28C1236.41 176.76 1235.42 177 1234.12 177H1228.95V167.316H1233.9C1235.11 167.316 1236.06 167.538 1236.74 167.982C1237.43 168.414 1237.77 169.026 1237.77 169.818C1237.77 170.298 1237.64 170.724 1237.39 171.096C1237.15 171.456 1236.8 171.738 1236.35 171.942ZM1231.52 171.294H1233.65C1234.63 171.294 1235.12 170.946 1235.12 170.25C1235.12 169.566 1234.63 169.224 1233.65 169.224H1231.52V171.294ZM1233.88 175.092C1234.91 175.092 1235.43 174.738 1235.43 174.03C1235.43 173.658 1235.31 173.388 1235.07 173.22C1234.83 173.04 1234.45 172.95 1233.94 172.95H1231.52V175.092H1233.88ZM1244.75 177.144C1243.72 177.144 1242.79 176.934 1241.96 176.514C1241.15 176.082 1240.51 175.488 1240.04 174.732C1239.58 173.976 1239.35 173.118 1239.35 172.158C1239.35 171.198 1239.58 170.34 1240.04 169.584C1240.51 168.828 1241.15 168.24 1241.96 167.82C1242.79 167.388 1243.72 167.172 1244.75 167.172C1245.77 167.172 1246.66 167.388 1247.42 167.82C1248.19 168.24 1248.74 168.846 1249.09 169.638L1246.91 170.808C1246.41 169.92 1245.68 169.476 1244.74 169.476C1244 169.476 1243.4 169.716 1242.92 170.196C1242.44 170.676 1242.2 171.33 1242.2 172.158C1242.2 172.986 1242.44 173.64 1242.92 174.12C1243.4 174.6 1244 174.84 1244.74 174.84C1245.7 174.84 1246.42 174.396 1246.91 173.508L1249.09 174.696C1248.74 175.464 1248.19 176.064 1247.42 176.496C1246.66 176.928 1245.77 177.144 1244.75 177.144ZM1260.09 172.194C1260.09 172.23 1260.07 172.482 1260.04 172.95H1252.71C1252.84 173.55 1253.15 174.024 1253.65 174.372C1254.14 174.72 1254.75 174.894 1255.48 174.894C1255.99 174.894 1256.43 174.822 1256.81 174.678C1257.21 174.522 1257.58 174.282 1257.91 173.958L1259.41 175.578C1258.49 176.622 1257.16 177.144 1255.41 177.144C1254.32 177.144 1253.35 176.934 1252.51 176.514C1251.67 176.082 1251.02 175.488 1250.57 174.732C1250.11 173.976 1249.88 173.118 1249.88 172.158C1249.88 171.21 1250.11 170.358 1250.55 169.602C1251.01 168.834 1251.62 168.24 1252.4 167.82C1253.2 167.388 1254.08 167.172 1255.05 167.172C1256 167.172 1256.86 167.376 1257.62 167.784C1258.39 168.192 1258.99 168.78 1259.42 169.548C1259.87 170.304 1260.09 171.186 1260.09 172.194ZM1255.07 169.296C1254.43 169.296 1253.9 169.476 1253.47 169.836C1253.03 170.196 1252.77 170.688 1252.67 171.312H1257.44C1257.35 170.7 1257.08 170.214 1256.65 169.854C1256.22 169.482 1255.69 169.296 1255.07 169.296ZM1270 169.62H1265.03V177H1262.24V167.316H1270V169.62ZM1281.64 174.696V179.088H1279.03V177H1272.23V179.088H1269.62V174.696H1270.01C1270.61 174.684 1271.03 174.33 1271.25 173.634C1271.48 172.938 1271.63 171.948 1271.69 170.664L1271.81 167.316H1280.25V174.696H1281.64ZM1274.22 170.862C1274.19 171.846 1274.11 172.65 1273.99 173.274C1273.88 173.898 1273.67 174.372 1273.36 174.696H1277.45V169.62H1274.28L1274.22 170.862ZM1287.17 167.172C1288.67 167.172 1289.82 167.532 1290.62 168.252C1291.43 168.96 1291.83 170.034 1291.83 171.474V177H1289.2V175.794C1288.67 176.694 1287.69 177.144 1286.25 177.144C1285.51 177.144 1284.86 177.018 1284.31 176.766C1283.77 176.514 1283.35 176.166 1283.06 175.722C1282.78 175.278 1282.63 174.774 1282.63 174.21C1282.63 173.31 1282.97 172.602 1283.64 172.086C1284.32 171.57 1285.37 171.312 1286.79 171.312H1289.02C1289.02 170.7 1288.84 170.232 1288.46 169.908C1288.09 169.572 1287.53 169.404 1286.79 169.404C1286.27 169.404 1285.76 169.488 1285.26 169.656C1284.77 169.812 1284.35 170.028 1284 170.304L1282.99 168.342C1283.52 167.97 1284.15 167.682 1284.88 167.478C1285.63 167.274 1286.39 167.172 1287.17 167.172ZM1286.95 175.254C1287.43 175.254 1287.86 175.146 1288.23 174.93C1288.6 174.702 1288.87 174.372 1289.02 173.94V172.95H1287.1C1285.94 172.95 1285.37 173.328 1285.37 174.084C1285.37 174.444 1285.51 174.732 1285.78 174.948C1286.07 175.152 1286.46 175.254 1286.95 175.254ZM1306.77 171.942C1307.91 172.326 1308.48 173.094 1308.48 174.246C1308.48 175.122 1308.15 175.8 1307.49 176.28C1306.83 176.76 1305.84 177 1304.53 177H1299.37V167.316H1304.32C1305.53 167.316 1306.48 167.538 1307.16 167.982C1307.85 168.414 1308.19 169.026 1308.19 169.818C1308.19 170.298 1308.06 170.724 1307.81 171.096C1307.57 171.456 1307.22 171.738 1306.77 171.942ZM1301.94 171.294H1304.07C1305.05 171.294 1305.54 170.946 1305.54 170.25C1305.54 169.566 1305.05 169.224 1304.07 169.224H1301.94V171.294ZM1304.3 175.092C1305.33 175.092 1305.85 174.738 1305.85 174.03C1305.85 173.658 1305.73 173.388 1305.49 173.22C1305.25 173.04 1304.87 172.95 1304.35 172.95H1301.94V175.092H1304.3ZM1144.3 193.316H1147.09V197.096H1151.3V193.316H1154.11V203H1151.3V199.382H1147.09V203H1144.3V193.316ZM1160.56 193.172C1162.06 193.172 1163.21 193.532 1164.02 194.252C1164.82 194.96 1165.22 196.034 1165.22 197.474V203H1162.6V201.794C1162.07 202.694 1161.08 203.144 1159.64 203.144C1158.9 203.144 1158.25 203.018 1157.7 202.766C1157.16 202.514 1156.75 202.166 1156.46 201.722C1156.17 201.278 1156.03 200.774 1156.03 200.21C1156.03 199.31 1156.36 198.602 1157.03 198.086C1157.72 197.57 1158.77 197.312 1160.18 197.312H1162.42C1162.42 196.7 1162.23 196.232 1161.86 195.908C1161.49 195.572 1160.93 195.404 1160.18 195.404C1159.67 195.404 1159.16 195.488 1158.65 195.656C1158.16 195.812 1157.74 196.028 1157.39 196.304L1156.39 194.342C1156.91 193.97 1157.54 193.682 1158.28 193.478C1159.02 193.274 1159.78 193.172 1160.56 193.172ZM1160.35 201.254C1160.83 201.254 1161.25 201.146 1161.62 200.93C1162 200.702 1162.26 200.372 1162.42 199.94V198.95H1160.49C1159.34 198.95 1158.76 199.328 1158.76 200.084C1158.76 200.444 1158.9 200.732 1159.18 200.948C1159.46 201.152 1159.85 201.254 1160.35 201.254ZM1176.95 193.316V203H1174.14V195.62H1171.08L1170.99 197.33C1170.95 198.602 1170.83 199.658 1170.63 200.498C1170.44 201.338 1170.13 201.998 1169.7 202.478C1169.27 202.958 1168.67 203.198 1167.9 203.198C1167.49 203.198 1167 203.126 1166.44 202.982L1166.58 200.678C1166.78 200.702 1166.91 200.714 1167 200.714C1167.42 200.714 1167.73 200.564 1167.93 200.264C1168.15 199.952 1168.29 199.562 1168.37 199.094C1168.44 198.614 1168.49 197.984 1168.53 197.204L1168.67 193.316H1176.95ZM1179.65 193.316H1182.44V199.076L1187.16 193.316H1189.73V203H1186.94V197.24L1182.24 203H1179.65V193.316ZM1201.14 193.316V203H1198.34V199.4C1197.52 199.808 1196.62 200.012 1195.64 200.012C1194.33 200.012 1193.34 199.718 1192.67 199.13C1192.01 198.53 1191.68 197.606 1191.68 196.358V193.316H1194.48V196.178C1194.48 196.766 1194.63 197.192 1194.93 197.456C1195.25 197.72 1195.69 197.852 1196.27 197.852C1197 197.852 1197.69 197.696 1198.34 197.384V193.316H1201.14ZM1203.84 193.316H1206.63V199.076L1211.35 193.316H1213.92V203H1211.13V197.24L1206.43 203H1203.84V193.316ZM1216.62 193.316H1219.41V199.076L1224.12 193.316H1226.7V203H1223.91V197.24L1219.21 203H1216.62V193.316Z" fill="white"/>
</svg>
