<svg width="468" height="329" viewBox="0 0 468 329" fill="none" xmlns="http://www.w3.org/2000/svg">
<circle cx="111" cy="26" r="26" fill="#FFEFC7"/>
<g clip-path="url(#clip0_3_8389)">
<path d="M97 74.9264C77.7004 74.9264 62 59.4668 62 40.4632C62 21.4596 77.7004 6 97 6C116.3 6 132 21.4596 132 40.4632C132 59.4668 116.3 74.9264 97 74.9264ZM97 8.87193C79.3104 8.87193 64.9167 23.0449 64.9167 40.4632C64.9167 57.8815 79.3104 72.0545 97 72.0545C114.69 72.0545 129.083 57.8815 129.083 40.4632C129.083 23.0449 114.69 8.87193 97 8.87193Z" fill="#2D2D2D"/>
<path d="M113.041 57.6954C112.668 57.6954 112.294 57.5546 112.009 57.276L95.9668 41.4804C95.6956 41.2105 95.541 40.8457 95.541 40.4637V18.9242C95.541 18.1316 96.1943 17.4883 96.9993 17.4883C97.8043 17.4883 98.4577 18.1316 98.4577 18.9242V39.8693L114.074 55.2456C114.642 55.8056 114.642 56.716 114.074 57.276C113.788 57.5546 113.414 57.6954 113.041 57.6954Z" fill="#2D2D2D"/>
</g>
<path d="M31.6797 113H29.4648V101.996H23.8311V113H21.6162V100.203H31.6797V113ZM33.7627 108.157C33.7627 107.226 33.9473 106.388 34.3164 105.644C34.6855 104.894 35.2041 104.319 35.8721 103.921C36.54 103.517 37.3076 103.314 38.1748 103.314C39.458 103.314 40.498 103.728 41.2949 104.554C42.0977 105.38 42.5312 106.476 42.5957 107.841L42.6045 108.342C42.6045 109.279 42.4229 110.117 42.0596 110.855C41.7021 111.594 41.1865 112.165 40.5127 112.569C39.8447 112.974 39.0713 113.176 38.1924 113.176C36.8506 113.176 35.7754 112.73 34.9668 111.84C34.1641 110.943 33.7627 109.751 33.7627 108.263V108.157ZM35.8984 108.342C35.8984 109.32 36.1006 110.088 36.5049 110.645C36.9092 111.195 37.4717 111.471 38.1924 111.471C38.9131 111.471 39.4727 111.189 39.8711 110.627C40.2754 110.064 40.4775 109.241 40.4775 108.157C40.4775 107.196 40.2695 106.435 39.8535 105.872C39.4434 105.31 38.8838 105.028 38.1748 105.028C37.4775 105.028 36.9238 105.307 36.5137 105.863C36.1035 106.414 35.8984 107.24 35.8984 108.342ZM48.3174 111.471C48.8506 111.471 49.293 111.315 49.6445 111.005C49.9961 110.694 50.1836 110.311 50.207 109.854H52.2197C52.1963 110.445 52.0117 110.999 51.666 111.515C51.3203 112.024 50.8516 112.429 50.2598 112.728C49.668 113.026 49.0293 113.176 48.3438 113.176C47.0137 113.176 45.959 112.745 45.1797 111.884C44.4004 111.022 44.0107 109.833 44.0107 108.315V108.096C44.0107 106.648 44.3975 105.491 45.1709 104.624C45.9443 103.751 46.999 103.314 48.335 103.314C49.4658 103.314 50.3857 103.646 51.0947 104.308C51.8096 104.964 52.1846 105.828 52.2197 106.9H50.207C50.1836 106.355 49.9961 105.907 49.6445 105.556C49.2988 105.204 48.8564 105.028 48.3174 105.028C47.626 105.028 47.0928 105.28 46.7178 105.784C46.3428 106.282 46.1523 107.041 46.1465 108.061V108.403C46.1465 109.435 46.3311 110.205 46.7002 110.715C47.0752 111.219 47.6143 111.471 48.3174 111.471ZM61.3164 105.187H58.2314V113H56.0957V105.187H53.0459V103.49H61.3164V105.187ZM68.2861 113C68.1924 112.818 68.1104 112.522 68.04 112.112C67.3604 112.821 66.5283 113.176 65.5439 113.176C64.5889 113.176 63.8096 112.903 63.2061 112.358C62.6025 111.813 62.3008 111.14 62.3008 110.337C62.3008 109.323 62.6758 108.547 63.4258 108.008C64.1816 107.463 65.2598 107.19 66.6602 107.19H67.9697V106.566C67.9697 106.074 67.832 105.682 67.5566 105.389C67.2812 105.09 66.8623 104.94 66.2998 104.94C65.8135 104.94 65.415 105.063 65.1045 105.31C64.7939 105.55 64.6387 105.857 64.6387 106.232H62.5029C62.5029 105.711 62.6758 105.225 63.0215 104.773C63.3672 104.316 63.8359 103.959 64.4277 103.701C65.0254 103.443 65.6904 103.314 66.4229 103.314C67.5361 103.314 68.4238 103.596 69.0859 104.158C69.748 104.715 70.0879 105.5 70.1055 106.514V110.803C70.1055 111.658 70.2256 112.341 70.4658 112.851V113H68.2861ZM65.9395 111.462C66.3613 111.462 66.7568 111.359 67.126 111.154C67.501 110.949 67.7822 110.674 67.9697 110.328V108.535H66.8184C66.0273 108.535 65.4326 108.673 65.0342 108.948C64.6357 109.224 64.4365 109.613 64.4365 110.117C64.4365 110.527 64.5713 110.855 64.8408 111.102C65.1162 111.342 65.4824 111.462 65.9395 111.462ZM72.5049 113V103.49H76.3633C77.6641 103.49 78.6543 103.719 79.334 104.176C80.0137 104.627 80.3535 105.277 80.3535 106.127C80.3535 106.566 80.2158 106.962 79.9404 107.313C79.6709 107.659 79.2695 107.926 78.7363 108.113C79.3574 108.242 79.8496 108.503 80.2129 108.896C80.5762 109.288 80.7578 109.751 80.7578 110.284C80.7578 111.169 80.4297 111.843 79.7734 112.306C79.123 112.769 78.1855 113 76.9609 113H72.5049ZM74.6406 108.948V111.312H76.9785C78.0742 111.312 78.6221 110.92 78.6221 110.135C78.6221 109.344 78.0654 108.948 76.9521 108.948H74.6406ZM74.6406 107.419H76.3984C77.6113 107.419 78.2178 107.062 78.2178 106.347C78.2178 105.597 77.6436 105.21 76.4951 105.187H74.6406V107.419ZM85.9873 109.238H84.9062V113H82.7705V103.49H84.9062V107.287H85.8467L88.4746 103.49H91.1113L87.6748 108.043L91.4014 113H88.624L85.9873 109.238ZM98.2568 113C98.1631 112.818 98.0811 112.522 98.0107 112.112C97.3311 112.821 96.499 113.176 95.5146 113.176C94.5596 113.176 93.7803 112.903 93.1768 112.358C92.5732 111.813 92.2715 111.14 92.2715 110.337C92.2715 109.323 92.6465 108.547 93.3965 108.008C94.1523 107.463 95.2305 107.19 96.6309 107.19H97.9404V106.566C97.9404 106.074 97.8027 105.682 97.5273 105.389C97.252 105.09 96.833 104.94 96.2705 104.94C95.7842 104.94 95.3857 105.063 95.0752 105.31C94.7646 105.55 94.6094 105.857 94.6094 106.232H92.4736C92.4736 105.711 92.6465 105.225 92.9922 104.773C93.3379 104.316 93.8066 103.959 94.3984 103.701C94.9961 103.443 95.6611 103.314 96.3936 103.314C97.5068 103.314 98.3945 103.596 99.0566 104.158C99.7188 104.715 100.059 105.5 100.076 106.514V110.803C100.076 111.658 100.196 112.341 100.437 112.851V113H98.2568ZM95.9102 111.462C96.332 111.462 96.7275 111.359 97.0967 111.154C97.4717 110.949 97.7529 110.674 97.9404 110.328V108.535H96.7891C95.998 108.535 95.4033 108.673 95.0049 108.948C94.6064 109.224 94.4072 109.613 94.4072 110.117C94.4072 110.527 94.542 110.855 94.8115 111.102C95.0869 111.342 95.4531 111.462 95.9102 111.462ZM114.279 105.187H111.194V113H109.059V105.187H106.009V103.49H114.279V105.187ZM119.333 113.176C117.979 113.176 116.881 112.751 116.037 111.901C115.199 111.046 114.78 109.909 114.78 108.491V108.228C114.78 107.278 114.962 106.432 115.325 105.688C115.694 104.938 116.21 104.354 116.872 103.938C117.534 103.522 118.272 103.314 119.087 103.314C120.382 103.314 121.381 103.728 122.084 104.554C122.793 105.38 123.147 106.549 123.147 108.061V108.922H116.934C116.998 109.707 117.259 110.328 117.716 110.785C118.179 111.242 118.759 111.471 119.456 111.471C120.435 111.471 121.231 111.075 121.847 110.284L122.998 111.383C122.617 111.951 122.107 112.394 121.469 112.71C120.836 113.021 120.124 113.176 119.333 113.176ZM119.078 105.028C118.492 105.028 118.018 105.233 117.654 105.644C117.297 106.054 117.068 106.625 116.969 107.357H121.038V107.199C120.991 106.484 120.801 105.945 120.467 105.582C120.133 105.213 119.67 105.028 119.078 105.028ZM128.228 106.619L130.038 103.49H132.411L129.502 108.175L132.508 113H130.152L128.254 109.748L126.364 113H123.991L126.997 108.175L124.097 103.49H126.452L128.228 106.619ZM141.921 113H139.785V109.159H136.085V113H133.949V103.49H136.085V107.454H139.785V103.49H141.921V113ZM150.139 103.49H152.266V113H150.139V106.654L146.412 113H144.285V103.49H146.412V109.836L150.139 103.49ZM157.917 109.238H156.836V113H154.7V103.49H156.836V107.287H157.776L160.404 103.49H163.041L159.604 108.043L163.331 113H160.554L157.917 109.238ZM170.441 103.49H172.568V113H170.441V106.654L166.715 113H164.588V103.49H166.715V109.836L170.441 103.49ZM51.3848 131.187H48.2998V139H46.1641V131.187H43.1143V129.49H51.3848V131.187ZM52.1494 134.157C52.1494 133.226 52.334 132.388 52.7031 131.644C53.0723 130.894 53.5908 130.319 54.2588 129.921C54.9268 129.517 55.6943 129.314 56.5615 129.314C57.8447 129.314 58.8848 129.728 59.6816 130.554C60.4844 131.38 60.918 132.476 60.9824 133.841L60.9912 134.342C60.9912 135.279 60.8096 136.117 60.4463 136.855C60.0889 137.594 59.5732 138.165 58.8994 138.569C58.2314 138.974 57.458 139.176 56.5791 139.176C55.2373 139.176 54.1621 138.73 53.3535 137.84C52.5508 136.943 52.1494 135.751 52.1494 134.263V134.157ZM54.2852 134.342C54.2852 135.32 54.4873 136.088 54.8916 136.645C55.2959 137.195 55.8584 137.471 56.5791 137.471C57.2998 137.471 57.8594 137.189 58.2578 136.627C58.6621 136.064 58.8643 135.241 58.8643 134.157C58.8643 133.196 58.6562 132.435 58.2402 131.872C57.8301 131.31 57.2705 131.028 56.5615 131.028C55.8643 131.028 55.3105 131.307 54.9004 131.863C54.4902 132.414 54.2852 133.24 54.2852 134.342ZM70.4219 139H68.2861V135.827C67.7354 135.956 67.1553 136.021 66.5459 136.021C65.2451 136.021 64.252 135.71 63.5664 135.089C62.8809 134.462 62.5381 133.565 62.5381 132.399V129.481H64.6738V132.399C64.6738 133.091 64.8262 133.58 65.1309 133.867C65.4414 134.154 65.9131 134.298 66.5459 134.298C67.1201 134.298 67.7002 134.23 68.2861 134.096V129.49H70.4219V139ZM80.749 139H78.6133V135.159H74.9131V139H72.7773V129.49H74.9131V133.454H78.6133V129.49H80.749V139ZM82.6299 134.157C82.6299 133.226 82.8145 132.388 83.1836 131.644C83.5527 130.894 84.0713 130.319 84.7393 129.921C85.4072 129.517 86.1748 129.314 87.042 129.314C88.3252 129.314 89.3652 129.728 90.1621 130.554C90.9648 131.38 91.3984 132.476 91.4629 133.841L91.4717 134.342C91.4717 135.279 91.29 136.117 90.9268 136.855C90.5693 137.594 90.0537 138.165 89.3799 138.569C88.7119 138.974 87.9385 139.176 87.0596 139.176C85.7178 139.176 84.6426 138.73 83.834 137.84C83.0312 136.943 82.6299 135.751 82.6299 134.263V134.157ZM84.7656 134.342C84.7656 135.32 84.9678 136.088 85.3721 136.645C85.7764 137.195 86.3389 137.471 87.0596 137.471C87.7803 137.471 88.3398 137.189 88.7383 136.627C89.1426 136.064 89.3447 135.241 89.3447 134.157C89.3447 133.196 89.1367 132.435 88.7207 131.872C88.3105 131.31 87.751 131.028 87.042 131.028C86.3447 131.028 85.791 131.307 85.3809 131.863C84.9707 132.414 84.7656 133.24 84.7656 134.342ZM97.9229 139V129.49H101.781C103.082 129.49 104.072 129.719 104.752 130.176C105.432 130.627 105.771 131.277 105.771 132.127C105.771 132.566 105.634 132.962 105.358 133.313C105.089 133.659 104.688 133.926 104.154 134.113C104.775 134.242 105.268 134.503 105.631 134.896C105.994 135.288 106.176 135.751 106.176 136.284C106.176 137.169 105.848 137.843 105.191 138.306C104.541 138.769 103.604 139 102.379 139H97.9229ZM100.059 134.948V137.312H102.396C103.492 137.312 104.04 136.92 104.04 136.135C104.04 135.344 103.483 134.948 102.37 134.948H100.059ZM100.059 133.419H101.816C103.029 133.419 103.636 133.062 103.636 132.347C103.636 131.597 103.062 131.21 101.913 131.187H100.059V133.419ZM116.415 137.471C116.948 137.471 117.391 137.315 117.742 137.005C118.094 136.694 118.281 136.311 118.305 135.854H120.317C120.294 136.445 120.109 136.999 119.764 137.515C119.418 138.024 118.949 138.429 118.357 138.728C117.766 139.026 117.127 139.176 116.441 139.176C115.111 139.176 114.057 138.745 113.277 137.884C112.498 137.022 112.108 135.833 112.108 134.315V134.096C112.108 132.648 112.495 131.491 113.269 130.624C114.042 129.751 115.097 129.314 116.433 129.314C117.563 129.314 118.483 129.646 119.192 130.308C119.907 130.964 120.282 131.828 120.317 132.9H118.305C118.281 132.355 118.094 131.907 117.742 131.556C117.396 131.204 116.954 131.028 116.415 131.028C115.724 131.028 115.19 131.28 114.815 131.784C114.44 132.282 114.25 133.041 114.244 134.061V134.403C114.244 135.435 114.429 136.205 114.798 136.715C115.173 137.219 115.712 137.471 116.415 137.471ZM130.258 134.342C130.258 135.812 129.924 136.987 129.256 137.866C128.588 138.739 127.691 139.176 126.566 139.176C125.523 139.176 124.688 138.833 124.062 138.147V142.656H121.926V129.49H123.895L123.982 130.457C124.609 129.695 125.462 129.314 126.54 129.314C127.7 129.314 128.608 129.748 129.265 130.615C129.927 131.477 130.258 132.675 130.258 134.21V134.342ZM128.131 134.157C128.131 133.208 127.94 132.455 127.56 131.898C127.185 131.342 126.646 131.063 125.942 131.063C125.069 131.063 124.442 131.424 124.062 132.145V136.363C124.448 137.102 125.081 137.471 125.96 137.471C126.64 137.471 127.17 137.198 127.551 136.653C127.938 136.103 128.131 135.271 128.131 134.157ZM131.673 134.157C131.673 133.226 131.857 132.388 132.227 131.644C132.596 130.894 133.114 130.319 133.782 129.921C134.45 129.517 135.218 129.314 136.085 129.314C137.368 129.314 138.408 129.728 139.205 130.554C140.008 131.38 140.441 132.476 140.506 133.841L140.515 134.342C140.515 135.279 140.333 136.117 139.97 136.855C139.612 137.594 139.097 138.165 138.423 138.569C137.755 138.974 136.981 139.176 136.103 139.176C134.761 139.176 133.686 138.73 132.877 137.84C132.074 136.943 131.673 135.751 131.673 134.263V134.157ZM133.809 134.342C133.809 135.32 134.011 136.088 134.415 136.645C134.819 137.195 135.382 137.471 136.103 137.471C136.823 137.471 137.383 137.189 137.781 136.627C138.186 136.064 138.388 135.241 138.388 134.157C138.388 133.196 138.18 132.435 137.764 131.872C137.354 131.31 136.794 131.028 136.085 131.028C135.388 131.028 134.834 131.307 134.424 131.863C134.014 132.414 133.809 133.24 133.809 134.342ZM145.7 135.238H144.619V139H142.483V129.49H144.619V133.287H145.56L148.188 129.49H150.824L147.388 134.043L151.114 139H148.337L145.7 135.238Z" fill="#2D2D2D"/>
<path d="M287.685 108.834C287.556 110.199 287.052 111.266 286.173 112.033C285.294 112.795 284.125 113.176 282.666 113.176C281.646 113.176 280.747 112.936 279.968 112.455C279.194 111.969 278.597 111.28 278.175 110.39C277.753 109.499 277.533 108.465 277.516 107.287V106.092C277.516 104.885 277.729 103.821 278.157 102.901C278.585 101.981 279.197 101.272 279.994 100.774C280.797 100.276 281.723 100.027 282.771 100.027C284.184 100.027 285.32 100.411 286.182 101.179C287.043 101.946 287.544 103.03 287.685 104.431H285.47C285.364 103.511 285.095 102.849 284.661 102.444C284.233 102.034 283.604 101.829 282.771 101.829C281.805 101.829 281.061 102.184 280.539 102.893C280.023 103.596 279.76 104.63 279.748 105.995V107.129C279.748 108.512 279.994 109.566 280.486 110.293C280.984 111.02 281.711 111.383 282.666 111.383C283.539 111.383 284.195 111.187 284.635 110.794C285.074 110.401 285.353 109.748 285.47 108.834H287.685ZM289.073 108.157C289.073 107.226 289.258 106.388 289.627 105.644C289.996 104.894 290.515 104.319 291.183 103.921C291.851 103.517 292.618 103.314 293.485 103.314C294.769 103.314 295.809 103.728 296.605 104.554C297.408 105.38 297.842 106.476 297.906 107.841L297.915 108.342C297.915 109.279 297.733 110.117 297.37 110.855C297.013 111.594 296.497 112.165 295.823 112.569C295.155 112.974 294.382 113.176 293.503 113.176C292.161 113.176 291.086 112.73 290.277 111.84C289.475 110.943 289.073 109.751 289.073 108.263V108.157ZM291.209 108.342C291.209 109.32 291.411 110.088 291.815 110.645C292.22 111.195 292.782 111.471 293.503 111.471C294.224 111.471 294.783 111.189 295.182 110.627C295.586 110.064 295.788 109.241 295.788 108.157C295.788 107.196 295.58 106.435 295.164 105.872C294.754 105.31 294.194 105.028 293.485 105.028C292.788 105.028 292.234 105.307 291.824 105.863C291.414 106.414 291.209 107.24 291.209 108.342ZM307.785 113H305.649V105.213H301.94V113H299.805V103.49H307.785V113ZM318.385 108.342C318.385 109.812 318.051 110.987 317.383 111.866C316.715 112.739 315.818 113.176 314.693 113.176C313.65 113.176 312.815 112.833 312.188 112.147V116.656H310.053V103.49H312.021L312.109 104.457C312.736 103.695 313.589 103.314 314.667 103.314C315.827 103.314 316.735 103.748 317.392 104.615C318.054 105.477 318.385 106.675 318.385 108.21V108.342ZM316.258 108.157C316.258 107.208 316.067 106.455 315.687 105.898C315.312 105.342 314.772 105.063 314.069 105.063C313.196 105.063 312.569 105.424 312.188 106.145V110.363C312.575 111.102 313.208 111.471 314.087 111.471C314.767 111.471 315.297 111.198 315.678 110.653C316.064 110.103 316.258 109.271 316.258 108.157ZM319.8 108.157C319.8 107.226 319.984 106.388 320.354 105.644C320.723 104.894 321.241 104.319 321.909 103.921C322.577 103.517 323.345 103.314 324.212 103.314C325.495 103.314 326.535 103.728 327.332 104.554C328.135 105.38 328.568 106.476 328.633 107.841L328.642 108.342C328.642 109.279 328.46 110.117 328.097 110.855C327.739 111.594 327.224 112.165 326.55 112.569C325.882 112.974 325.108 113.176 324.229 113.176C322.888 113.176 321.812 112.73 321.004 111.84C320.201 110.943 319.8 109.751 319.8 108.263V108.157ZM321.936 108.342C321.936 109.32 322.138 110.088 322.542 110.645C322.946 111.195 323.509 111.471 324.229 111.471C324.95 111.471 325.51 111.189 325.908 110.627C326.312 110.064 326.515 109.241 326.515 108.157C326.515 107.196 326.307 106.435 325.891 105.872C325.48 105.31 324.921 105.028 324.212 105.028C323.515 105.028 322.961 105.307 322.551 105.863C322.141 106.414 321.936 107.24 321.936 108.342ZM330.61 113V103.49H334.469C335.77 103.49 336.76 103.719 337.439 104.176C338.119 104.627 338.459 105.277 338.459 106.127C338.459 106.566 338.321 106.962 338.046 107.313C337.776 107.659 337.375 107.926 336.842 108.113C337.463 108.242 337.955 108.503 338.318 108.896C338.682 109.288 338.863 109.751 338.863 110.284C338.863 111.169 338.535 111.843 337.879 112.306C337.229 112.769 336.291 113 335.066 113H330.61ZM332.746 108.948V111.312H335.084C336.18 111.312 336.728 110.92 336.728 110.135C336.728 109.344 336.171 108.948 335.058 108.948H332.746ZM332.746 107.419H334.504C335.717 107.419 336.323 107.062 336.323 106.347C336.323 105.597 335.749 105.21 334.601 105.187H332.746V107.419ZM340.313 108.157C340.313 107.226 340.498 106.388 340.867 105.644C341.236 104.894 341.755 104.319 342.423 103.921C343.091 103.517 343.858 103.314 344.726 103.314C346.009 103.314 347.049 103.728 347.846 104.554C348.648 105.38 349.082 106.476 349.146 107.841L349.155 108.342C349.155 109.279 348.974 110.117 348.61 110.855C348.253 111.594 347.737 112.165 347.063 112.569C346.396 112.974 345.622 113.176 344.743 113.176C343.401 113.176 342.326 112.73 341.518 111.84C340.715 110.943 340.313 109.751 340.313 108.263V108.157ZM342.449 108.342C342.449 109.32 342.651 110.088 343.056 110.645C343.46 111.195 344.022 111.471 344.743 111.471C345.464 111.471 346.023 111.189 346.422 110.627C346.826 110.064 347.028 109.241 347.028 108.157C347.028 107.196 346.82 106.435 346.404 105.872C345.994 105.31 345.435 105.028 344.726 105.028C344.028 105.028 343.475 105.307 343.064 105.863C342.654 106.414 342.449 107.24 342.449 108.342ZM359.14 109.177H358.006V113H355.87V109.177H354.745L352.557 113H349.938L353.093 108.052L350.104 103.49H352.715L354.868 107.226H355.87V103.49H358.006V107.226H359.017L361.179 103.49H363.789L360.81 108.025L363.982 113H361.328L359.14 109.177ZM365.345 111.295C365.937 110.633 366.332 110.006 366.531 109.414C366.736 108.816 366.859 108.055 366.9 107.129L367.023 103.49H373.624V111.295H374.942V115.83H372.815V113H366.716V115.83H364.554L364.562 111.295H365.345ZM367.85 111.295H371.497V105.327H369.098L369.036 107.146C368.954 108.893 368.559 110.275 367.85 111.295ZM380.655 113.176C379.302 113.176 378.203 112.751 377.359 111.901C376.521 111.046 376.103 109.909 376.103 108.491V108.228C376.103 107.278 376.284 106.432 376.647 105.688C377.017 104.938 377.532 104.354 378.194 103.938C378.856 103.522 379.595 103.314 380.409 103.314C381.704 103.314 382.703 103.728 383.406 104.554C384.115 105.38 384.47 106.549 384.47 108.061V108.922H378.256C378.32 109.707 378.581 110.328 379.038 110.785C379.501 111.242 380.081 111.471 380.778 111.471C381.757 111.471 382.554 111.075 383.169 110.284L384.32 111.383C383.939 111.951 383.43 112.394 382.791 112.71C382.158 113.021 381.446 113.176 380.655 113.176ZM380.4 105.028C379.814 105.028 379.34 105.233 378.977 105.644C378.619 106.054 378.391 106.625 378.291 107.357H382.36V107.199C382.313 106.484 382.123 105.945 381.789 105.582C381.455 105.213 380.992 105.028 380.4 105.028ZM394.19 113H392.055V109.159H388.354V113H386.219V103.49H388.354V107.454H392.055V103.49H394.19V113ZM402.408 103.49H404.535V113H402.408V106.654L398.682 113H396.555V103.49H398.682V109.836L402.408 103.49ZM410.995 113.176C409.642 113.176 408.543 112.751 407.699 111.901C406.861 111.046 406.442 109.909 406.442 108.491V108.228C406.442 107.278 406.624 106.432 406.987 105.688C407.356 104.938 407.872 104.354 408.534 103.938C409.196 103.522 409.935 103.314 410.749 103.314C412.044 103.314 413.043 103.728 413.746 104.554C414.455 105.38 414.81 106.549 414.81 108.061V108.922H408.596C408.66 109.707 408.921 110.328 409.378 110.785C409.841 111.242 410.421 111.471 411.118 111.471C412.097 111.471 412.894 111.075 413.509 110.284L414.66 111.383C414.279 111.951 413.77 112.394 413.131 112.71C412.498 113.021 411.786 113.176 410.995 113.176ZM410.74 105.028C410.154 105.028 409.68 105.233 409.316 105.644C408.959 106.054 408.73 106.625 408.631 107.357H412.7V107.199C412.653 106.484 412.463 105.945 412.129 105.582C411.795 105.213 411.332 105.028 410.74 105.028ZM296.904 137.471C297.438 137.471 297.88 137.315 298.231 137.005C298.583 136.694 298.771 136.311 298.794 135.854H300.807C300.783 136.445 300.599 136.999 300.253 137.515C299.907 138.024 299.438 138.429 298.847 138.728C298.255 139.026 297.616 139.176 296.931 139.176C295.601 139.176 294.546 138.745 293.767 137.884C292.987 137.022 292.598 135.833 292.598 134.315V134.096C292.598 132.648 292.984 131.491 293.758 130.624C294.531 129.751 295.586 129.314 296.922 129.314C298.053 129.314 298.973 129.646 299.682 130.308C300.396 130.964 300.771 131.828 300.807 132.9H298.794C298.771 132.355 298.583 131.907 298.231 131.556C297.886 131.204 297.443 131.028 296.904 131.028C296.213 131.028 295.68 131.28 295.305 131.784C294.93 132.282 294.739 133.041 294.733 134.061V134.403C294.733 135.435 294.918 136.205 295.287 136.715C295.662 137.219 296.201 137.471 296.904 137.471ZM310.483 139H308.348V131.213H304.639V139H302.503V129.49H310.483V139ZM316.943 139.176C315.59 139.176 314.491 138.751 313.647 137.901C312.81 137.046 312.391 135.909 312.391 134.491V134.228C312.391 133.278 312.572 132.432 312.936 131.688C313.305 130.938 313.82 130.354 314.482 129.938C315.145 129.522 315.883 129.314 316.697 129.314C317.992 129.314 318.991 129.728 319.694 130.554C320.403 131.38 320.758 132.549 320.758 134.061V134.922H314.544C314.608 135.707 314.869 136.328 315.326 136.785C315.789 137.242 316.369 137.471 317.066 137.471C318.045 137.471 318.842 137.075 319.457 136.284L320.608 137.383C320.228 137.951 319.718 138.394 319.079 138.71C318.446 139.021 317.734 139.176 316.943 139.176ZM316.688 131.028C316.103 131.028 315.628 131.233 315.265 131.644C314.907 132.054 314.679 132.625 314.579 133.357H318.648V133.199C318.602 132.484 318.411 131.945 318.077 131.582C317.743 131.213 317.28 131.028 316.688 131.028ZM322.507 129.49H324.643V137.295H328.352V129.49H330.487V137.295H331.779L331.604 141.821H329.661V139H322.507V129.49ZM340.63 131.187H337.545V139H335.409V131.187H332.359V129.49H340.63V131.187ZM345.684 139.176C344.33 139.176 343.231 138.751 342.388 137.901C341.55 137.046 341.131 135.909 341.131 134.491V134.228C341.131 133.278 341.312 132.432 341.676 131.688C342.045 130.938 342.561 130.354 343.223 129.938C343.885 129.522 344.623 129.314 345.438 129.314C346.732 129.314 347.731 129.728 348.435 130.554C349.144 131.38 349.498 132.549 349.498 134.061V134.922H343.284C343.349 135.707 343.609 136.328 344.066 136.785C344.529 137.242 345.109 137.471 345.807 137.471C346.785 137.471 347.582 137.075 348.197 136.284L349.349 137.383C348.968 137.951 348.458 138.394 347.819 138.71C347.187 139.021 346.475 139.176 345.684 139.176ZM345.429 131.028C344.843 131.028 344.368 131.233 344.005 131.644C343.647 132.054 343.419 132.625 343.319 133.357H347.389V133.199C347.342 132.484 347.151 131.945 346.817 131.582C346.483 131.213 346.021 131.028 345.429 131.028ZM354.578 132.619L356.389 129.49H358.762L355.853 134.175L358.858 139H356.503L354.604 135.748L352.715 139H350.342L353.348 134.175L350.447 129.49H352.803L354.578 132.619ZM368.271 139H366.136V135.159H362.436V139H360.3V129.49H362.436V133.454H366.136V129.49H368.271V139ZM376.489 129.49H378.616V139H376.489V132.654L372.763 139H370.636V129.49H372.763V135.836L376.489 129.49ZM384.268 135.238H383.187V139H381.051V129.49H383.187V133.287H384.127L386.755 129.49H389.392L385.955 134.043L389.682 139H386.904L384.268 135.238ZM396.792 129.49H398.919V139H396.792V132.654L393.065 139H390.938V129.49H393.065V135.836L396.792 129.49Z" fill="#2D2D2D"/>
<circle cx="365" cy="26" r="26" fill="#FFEFC7"/>
<g clip-path="url(#clip1_3_8389)">
<path d="M311.221 11.4213L315.89 19.5906C316.047 19.8666 316.311 20.0664 316.619 20.1437L320.974 21.2325L335.913 36.1707L337.563 34.5206L322.391 19.3491C322.242 19.1993 322.055 19.0932 321.85 19.0418L317.665 17.9919L313.69 11.0324L317.098 7.62471L324.06 11.6033L325.111 15.7882C325.161 15.9937 325.268 16.1814 325.417 16.3308L340.589 31.5027L342.239 29.8521L327.301 14.914L326.212 10.561C326.135 10.2523 325.935 9.98822 325.659 9.83027L317.489 5.16231C317.034 4.90306 316.461 4.97987 316.089 5.35002L311.421 10.0185C311.046 10.3877 310.964 10.9619 311.221 11.4213Z" fill="#2D2D2D"/>
<path d="M359.743 28.0007L334.068 53.6761L332.417 52.0255L358.092 26.3506L359.743 28.0007Z" fill="#2D2D2D"/>
<path d="M329.573 54.5846C329.362 54.2332 328.983 54.0186 328.573 54.0186H321.57C321.161 54.0186 320.781 54.2332 320.57 54.5846L317.069 60.4197C316.847 60.7894 316.847 61.2517 317.069 61.6218L320.57 67.4569C320.781 67.8079 321.161 68.023 321.57 68.023H328.573C328.983 68.023 329.362 67.8079 329.573 67.4569L333.074 61.6218C333.296 61.2517 333.296 60.7894 333.074 60.4197L329.573 54.5846ZM327.912 65.6887H322.231L319.43 61.0208L322.231 56.3523H327.912L330.713 61.0208L327.912 65.6887Z" fill="#2D2D2D"/>
<path d="M367.085 33.0115C374.793 33.0374 381.063 26.8097 381.089 19.1018C381.093 17.9284 380.949 16.7599 380.66 15.6225C380.504 14.997 379.871 14.6163 379.246 14.7718C379.04 14.8232 378.853 14.9293 378.703 15.0786L371.438 22.3386L365.674 20.4177L363.752 14.6551L371.017 7.38892C371.472 6.93283 371.472 6.19397 371.016 5.73836C370.866 5.58809 370.676 5.48151 370.469 5.43062C362.994 3.53761 355.401 8.06249 353.508 15.5371C353.22 16.6711 353.077 17.8367 353.08 19.0067C353.083 19.9256 353.178 20.8416 353.364 21.7413L327.805 47.2996C326.906 47.1138 325.99 47.0192 325.071 47.0159C317.336 47.0159 311.066 53.2859 311.066 61.0207C311.066 68.755 317.336 75.025 325.071 75.025C332.806 75.025 339.076 68.755 339.076 61.0207C339.073 60.1018 338.978 59.1858 338.792 58.2861L344.911 52.1673L347.587 54.8433C348.043 55.2989 348.781 55.2989 349.237 54.8433L349.821 54.2595C350.332 53.7511 351.16 53.7511 351.671 54.2595C352.183 54.7694 352.184 55.5971 351.674 56.1084C351.673 56.1088 351.672 56.1098 351.671 56.1108L351.088 56.6941C350.632 57.1497 350.632 57.8885 351.088 58.3442L365.01 72.2659C368.672 75.9612 374.635 75.9881 378.331 72.3264C382.025 68.6647 382.052 62.7005 378.391 59.0057C378.371 58.9856 378.351 58.9654 378.331 58.9452L364.409 45.0239C363.953 44.5683 363.214 44.5683 362.759 45.0239L362.175 45.6073C361.663 46.1162 360.836 46.1162 360.324 45.6073C359.813 45.0974 359.812 44.2697 360.322 43.7589C360.323 43.7579 360.324 43.7575 360.324 43.7565L360.908 43.1727C361.364 42.7171 361.364 41.9782 360.908 41.5226L358.232 38.8466L364.351 32.7278C365.25 32.9136 366.166 33.0086 367.085 33.0115ZM371.67 72.6913C370.822 72.6898 369.982 72.5367 369.188 72.2385L378.303 63.1235C379.678 66.7823 377.827 70.8631 374.169 72.2385C373.37 72.5386 372.524 72.6922 371.67 72.6913ZM358.449 42.3594C357.156 43.901 357.359 46.1987 358.901 47.4907C360.255 48.6261 362.23 48.6251 363.583 47.4873L376.68 60.5958C376.823 60.7384 376.956 60.8886 377.084 61.0413L367.106 71.0196C366.953 70.8914 366.803 70.7584 366.66 70.6158L353.553 57.5078C354.845 55.9662 354.643 53.6685 353.101 52.3766C351.746 51.2407 349.771 51.2421 348.418 52.3795L346.551 50.5124L356.581 40.4967L358.449 42.3594ZM363.161 30.6216L336.687 57.0911C336.396 57.3811 336.28 57.8021 336.378 58.2001C337.98 64.4879 334.18 70.8832 327.892 72.4839C321.604 74.085 315.209 70.2855 313.608 63.9973C312.007 57.7095 315.806 51.3141 322.095 49.713C323.997 49.2291 325.99 49.2291 327.892 49.713C328.29 49.8105 328.71 49.6938 329.001 49.4053L355.469 22.9353C355.759 22.6453 355.876 22.2243 355.776 21.8268C354.186 15.6124 357.935 9.28577 364.149 7.69522C365.323 7.39516 366.538 7.27994 367.748 7.35531L361.592 13.514C361.279 13.826 361.17 14.2883 361.309 14.7075L363.643 21.7101C363.76 22.0582 364.033 22.3318 364.382 22.4475L371.385 24.7818C371.803 24.9215 372.266 24.8125 372.578 24.5004L378.734 18.3442C378.748 18.5669 378.755 18.7873 378.755 19.0067C378.788 25.4193 373.617 30.6442 367.204 30.6773C366.212 30.6821 365.224 30.5602 364.264 30.3144C363.866 30.215 363.445 30.3312 363.155 30.6211H363.161V30.6216Z" fill="#2D2D2D"/>
<path d="M371.413 63.6965L369.763 65.3471L358.093 53.6769L359.743 52.0264L371.413 63.6965Z" fill="#2D2D2D"/>
</g>
<path d="M5.83984 290.516H4.32812V296H2.11328V283.203H4.32812V288.582H5.5498L9.31152 283.203H12.0361L7.6416 289.329L12.4229 296H9.75098L5.83984 290.516ZM13.6094 296V286.49H17.4678C18.7686 286.49 19.7588 286.719 20.4385 287.176C21.1182 287.627 21.458 288.277 21.458 289.127C21.458 289.566 21.3203 289.962 21.0449 290.313C20.7754 290.659 20.374 290.926 19.8408 291.113C20.4619 291.242 20.9541 291.503 21.3174 291.896C21.6807 292.288 21.8623 292.751 21.8623 293.284C21.8623 294.169 21.5342 294.843 20.8779 295.306C20.2275 295.769 19.29 296 18.0654 296H13.6094ZM15.7451 291.948V294.312H18.083C19.1787 294.312 19.7266 293.92 19.7266 293.135C19.7266 292.344 19.1699 291.948 18.0566 291.948H15.7451ZM15.7451 290.419H17.5029C18.7158 290.419 19.3223 290.062 19.3223 289.347C19.3223 288.597 18.748 288.21 17.5996 288.187H15.7451V290.419ZM29.3945 296C29.3008 295.818 29.2188 295.522 29.1484 295.112C28.4688 295.821 27.6367 296.176 26.6523 296.176C25.6973 296.176 24.918 295.903 24.3145 295.358C23.7109 294.813 23.4092 294.14 23.4092 293.337C23.4092 292.323 23.7842 291.547 24.5342 291.008C25.29 290.463 26.3682 290.19 27.7686 290.19H29.0781V289.566C29.0781 289.074 28.9404 288.682 28.665 288.389C28.3896 288.09 27.9707 287.94 27.4082 287.94C26.9219 287.94 26.5234 288.063 26.2129 288.31C25.9023 288.55 25.7471 288.857 25.7471 289.232H23.6113C23.6113 288.711 23.7842 288.225 24.1299 287.773C24.4756 287.316 24.9443 286.959 25.5361 286.701C26.1338 286.443 26.7988 286.314 27.5312 286.314C28.6445 286.314 29.5322 286.596 30.1943 287.158C30.8564 287.715 31.1963 288.5 31.2139 289.514V293.803C31.2139 294.658 31.334 295.341 31.5742 295.851V296H29.3945ZM27.0479 294.462C27.4697 294.462 27.8652 294.359 28.2344 294.154C28.6094 293.949 28.8906 293.674 29.0781 293.328V291.535H27.9268C27.1357 291.535 26.541 291.673 26.1426 291.948C25.7441 292.224 25.5449 292.613 25.5449 293.117C25.5449 293.527 25.6797 293.855 25.9492 294.102C26.2246 294.342 26.5908 294.462 27.0479 294.462ZM41.5322 286.49V296H39.3965V288.213H36.707L36.5312 291.526C36.4199 293.12 36.1123 294.266 35.6084 294.963C35.1104 295.654 34.3457 296 33.3145 296H32.6553L32.6465 294.225L33.0859 294.181C33.5547 294.116 33.8945 293.832 34.1055 293.328C34.3223 292.818 34.46 291.893 34.5186 290.551L34.6943 286.49H41.5322ZM49.7412 286.49H51.8682V296H49.7412V289.654L46.0146 296H43.8877V286.49H46.0146V292.836L49.7412 286.49ZM53.7842 291.377C53.7842 289.824 54.0889 288.594 54.6982 287.686C55.3135 286.771 56.1689 286.314 57.2646 286.314C57.71 286.314 58.1143 286.396 58.4775 286.561V282.5H60.6045V286.596C60.9795 286.408 61.4189 286.314 61.9229 286.314C63.0127 286.314 63.8652 286.769 64.4805 287.677C65.1016 288.579 65.4121 289.874 65.4121 291.562C65.4121 292.985 65.1016 294.11 64.4805 294.937C63.8594 295.763 63.0127 296.176 61.9404 296.176C61.4541 296.176 61.0088 296.088 60.6045 295.912V299.656H58.4775V295.947C58.1201 296.1 57.71 296.176 57.2471 296.176C56.2217 296.176 55.4014 295.798 54.7861 295.042C54.1768 294.28 53.8457 293.234 53.793 291.904L53.7842 291.377ZM63.2764 291.377C63.2764 290.311 63.1064 289.487 62.7666 288.907C62.4268 288.321 61.9463 288.028 61.3252 288.028C61.0615 288.028 60.8213 288.066 60.6045 288.143V294.383C60.7979 294.441 61.0439 294.471 61.3428 294.471C62.6318 294.471 63.2764 293.439 63.2764 291.377ZM55.9111 291.562C55.9111 292.511 56.0693 293.234 56.3857 293.732C56.7021 294.225 57.1709 294.471 57.792 294.471C58.0557 294.471 58.2842 294.441 58.4775 294.383V288.116C58.2783 288.058 58.0557 288.028 57.8096 288.028C57.2002 288.028 56.7314 288.312 56.4033 288.881C56.0752 289.443 55.9111 290.337 55.9111 291.562ZM73.1904 286.49H75.3174V296H73.1904V289.654L69.4639 296H67.3369V286.49H69.4639V292.836L73.1904 286.49ZM77.6729 286.49H79.8086V294.295H83.5176V286.49H85.6533V294.295H86.9453L86.7695 298.821H84.8271V296H77.6729V286.49ZM94.3896 286.49H96.5166V296H94.3896V289.654L90.6631 296H88.5361V286.49H90.6631V292.836L94.3896 286.49ZM107.116 291.342C107.116 292.812 106.782 293.987 106.114 294.866C105.446 295.739 104.55 296.176 103.425 296.176C102.382 296.176 101.547 295.833 100.92 295.147V299.656H98.7842V286.49H100.753L100.841 287.457C101.468 286.695 102.32 286.314 103.398 286.314C104.559 286.314 105.467 286.748 106.123 287.615C106.785 288.477 107.116 289.675 107.116 291.21V291.342ZM104.989 291.157C104.989 290.208 104.799 289.455 104.418 288.898C104.043 288.342 103.504 288.063 102.801 288.063C101.928 288.063 101.301 288.424 100.92 289.145V293.363C101.307 294.102 101.939 294.471 102.818 294.471C103.498 294.471 104.028 294.198 104.409 293.653C104.796 293.103 104.989 292.271 104.989 291.157ZM108.531 291.157C108.531 290.226 108.716 289.388 109.085 288.644C109.454 287.894 109.973 287.319 110.641 286.921C111.309 286.517 112.076 286.314 112.943 286.314C114.227 286.314 115.267 286.728 116.063 287.554C116.866 288.38 117.3 289.476 117.364 290.841L117.373 291.342C117.373 292.279 117.191 293.117 116.828 293.855C116.471 294.594 115.955 295.165 115.281 295.569C114.613 295.974 113.84 296.176 112.961 296.176C111.619 296.176 110.544 295.73 109.735 294.84C108.933 293.943 108.531 292.751 108.531 291.263V291.157ZM110.667 291.342C110.667 292.32 110.869 293.088 111.273 293.645C111.678 294.195 112.24 294.471 112.961 294.471C113.682 294.471 114.241 294.189 114.64 293.627C115.044 293.064 115.246 292.241 115.246 291.157C115.246 290.196 115.038 289.435 114.622 288.872C114.212 288.31 113.652 288.028 112.943 288.028C112.246 288.028 111.692 288.307 111.282 288.863C110.872 289.414 110.667 290.24 110.667 291.342ZM119.342 296V286.49H123.2C124.501 286.49 125.491 286.719 126.171 287.176C126.851 287.627 127.19 288.277 127.19 289.127C127.19 289.566 127.053 289.962 126.777 290.313C126.508 290.659 126.106 290.926 125.573 291.113C126.194 291.242 126.687 291.503 127.05 291.896C127.413 292.288 127.595 292.751 127.595 293.284C127.595 294.169 127.267 294.843 126.61 295.306C125.96 295.769 125.022 296 123.798 296H119.342ZM121.478 291.948V294.312H123.815C124.911 294.312 125.459 293.92 125.459 293.135C125.459 292.344 124.902 291.948 123.789 291.948H121.478ZM121.478 290.419H123.235C124.448 290.419 125.055 290.062 125.055 289.347C125.055 288.597 124.48 288.21 123.332 288.187H121.478V290.419ZM135.127 296C135.033 295.818 134.951 295.522 134.881 295.112C134.201 295.821 133.369 296.176 132.385 296.176C131.43 296.176 130.65 295.903 130.047 295.358C129.443 294.813 129.142 294.14 129.142 293.337C129.142 292.323 129.517 291.547 130.267 291.008C131.022 290.463 132.101 290.19 133.501 290.19H134.811V289.566C134.811 289.074 134.673 288.682 134.397 288.389C134.122 288.09 133.703 287.94 133.141 287.94C132.654 287.94 132.256 288.063 131.945 288.31C131.635 288.55 131.479 288.857 131.479 289.232H129.344C129.344 288.711 129.517 288.225 129.862 287.773C130.208 287.316 130.677 286.959 131.269 286.701C131.866 286.443 132.531 286.314 133.264 286.314C134.377 286.314 135.265 286.596 135.927 287.158C136.589 287.715 136.929 288.5 136.946 289.514V293.803C136.946 294.658 137.066 295.341 137.307 295.851V296H135.127ZM132.78 294.462C133.202 294.462 133.598 294.359 133.967 294.154C134.342 293.949 134.623 293.674 134.811 293.328V291.535H133.659C132.868 291.535 132.273 291.673 131.875 291.948C131.477 292.224 131.277 292.613 131.277 293.117C131.277 293.527 131.412 293.855 131.682 294.102C131.957 294.342 132.323 294.462 132.78 294.462ZM147.238 296H145.103V292.159H141.402V296H139.267V286.49H141.402V290.454H145.103V286.49H147.238V296ZM157.574 296H155.438V292.159H151.738V296H149.603V286.49H151.738V290.454H155.438V286.49H157.574V296ZM167.91 296H165.774V292.159H162.074V296H159.938V286.49H162.074V290.454H165.774V286.49H167.91V296ZM172.489 289.514H174.581C175.36 289.514 176.04 289.648 176.62 289.918C177.2 290.188 177.64 290.565 177.938 291.052C178.243 291.538 178.396 292.104 178.396 292.748C178.396 293.727 178.05 294.512 177.358 295.104C176.667 295.695 175.747 295.994 174.599 296H170.354V286.49H172.489V289.514ZM182.113 296H179.978V286.49H182.113V296ZM172.489 291.228V294.295H174.572C175.094 294.295 175.504 294.166 175.803 293.908C176.107 293.645 176.26 293.272 176.26 292.792C176.26 292.312 176.11 291.934 175.812 291.658C175.519 291.377 175.12 291.233 174.616 291.228H172.489ZM188.863 296.176C187.51 296.176 186.411 295.751 185.567 294.901C184.729 294.046 184.311 292.909 184.311 291.491V291.228C184.311 290.278 184.492 289.432 184.855 288.688C185.225 287.938 185.74 287.354 186.402 286.938C187.064 286.522 187.803 286.314 188.617 286.314C189.912 286.314 190.911 286.728 191.614 287.554C192.323 288.38 192.678 289.549 192.678 291.061V291.922H186.464C186.528 292.707 186.789 293.328 187.246 293.785C187.709 294.242 188.289 294.471 188.986 294.471C189.965 294.471 190.762 294.075 191.377 293.284L192.528 294.383C192.147 294.951 191.638 295.394 190.999 295.71C190.366 296.021 189.654 296.176 188.863 296.176ZM188.608 288.028C188.022 288.028 187.548 288.233 187.185 288.644C186.827 289.054 186.599 289.625 186.499 290.357H190.568V290.199C190.521 289.484 190.331 288.945 189.997 288.582C189.663 288.213 189.2 288.028 188.608 288.028ZM45.0654 320.471C45.5986 320.471 46.041 320.315 46.3926 320.005C46.7441 319.694 46.9316 319.311 46.9551 318.854H48.9678C48.9443 319.445 48.7598 319.999 48.4141 320.515C48.0684 321.024 47.5996 321.429 47.0078 321.728C46.416 322.026 45.7773 322.176 45.0918 322.176C43.7617 322.176 42.707 321.745 41.9277 320.884C41.1484 320.022 40.7588 318.833 40.7588 317.315V317.096C40.7588 315.648 41.1455 314.491 41.9189 313.624C42.6924 312.751 43.7471 312.314 45.083 312.314C46.2139 312.314 47.1338 312.646 47.8428 313.308C48.5576 313.964 48.9326 314.828 48.9678 315.9H46.9551C46.9316 315.355 46.7441 314.907 46.3926 314.556C46.0469 314.204 45.6045 314.028 45.0654 314.028C44.374 314.028 43.8408 314.28 43.4658 314.784C43.0908 315.282 42.9004 316.041 42.8945 317.061V317.403C42.8945 318.435 43.0791 319.205 43.4482 319.715C43.8232 320.219 44.3623 320.471 45.0654 320.471ZM58.6445 322H56.5088V314.213H52.7998V322H50.6641V312.49H58.6445V322ZM65.1045 322.176C63.751 322.176 62.6523 321.751 61.8086 320.901C60.9707 320.046 60.5518 318.909 60.5518 317.491V317.228C60.5518 316.278 60.7334 315.432 61.0967 314.688C61.4658 313.938 61.9814 313.354 62.6436 312.938C63.3057 312.522 64.0439 312.314 64.8584 312.314C66.1533 312.314 67.1523 312.728 67.8555 313.554C68.5645 314.38 68.9189 315.549 68.9189 317.061V317.922H62.7051C62.7695 318.707 63.0303 319.328 63.4873 319.785C63.9502 320.242 64.5303 320.471 65.2275 320.471C66.2061 320.471 67.0029 320.075 67.6182 319.284L68.7695 320.383C68.3887 320.951 67.8789 321.394 67.2402 321.71C66.6074 322.021 65.8955 322.176 65.1045 322.176ZM64.8496 314.028C64.2637 314.028 63.7891 314.233 63.4258 314.644C63.0684 315.054 62.8398 315.625 62.7402 316.357H66.8096V316.199C66.7627 315.484 66.5723 314.945 66.2383 314.582C65.9043 314.213 65.4414 314.028 64.8496 314.028ZM70.668 312.49H72.8037V320.295H76.5127V312.49H78.6484V320.295H79.9404L79.7646 324.821H77.8223V322H70.668V312.49ZM87.3848 312.49H89.5117V322H87.3848V315.654L83.6582 322H81.5312V312.49H83.6582V318.836L87.3848 312.49ZM97.4658 322C97.3721 321.818 97.29 321.522 97.2197 321.112C96.54 321.821 95.708 322.176 94.7236 322.176C93.7686 322.176 92.9893 321.903 92.3857 321.358C91.7822 320.813 91.4805 320.14 91.4805 319.337C91.4805 318.323 91.8555 317.547 92.6055 317.008C93.3613 316.463 94.4395 316.19 95.8398 316.19H97.1494V315.566C97.1494 315.074 97.0117 314.682 96.7363 314.389C96.4609 314.09 96.042 313.94 95.4795 313.94C94.9932 313.94 94.5947 314.063 94.2842 314.31C93.9736 314.55 93.8184 314.857 93.8184 315.232H91.6826C91.6826 314.711 91.8555 314.225 92.2012 313.773C92.5469 313.316 93.0156 312.959 93.6074 312.701C94.2051 312.443 94.8701 312.314 95.6025 312.314C96.7158 312.314 97.6035 312.596 98.2656 313.158C98.9277 313.715 99.2676 314.5 99.2852 315.514V319.803C99.2852 320.658 99.4053 321.341 99.6455 321.851V322H97.4658ZM95.1191 320.462C95.541 320.462 95.9365 320.359 96.3057 320.154C96.6807 319.949 96.9619 319.674 97.1494 319.328V317.535H95.998C95.207 317.535 94.6123 317.673 94.2139 317.948C93.8154 318.224 93.6162 318.613 93.6162 319.117C93.6162 319.527 93.751 319.855 94.0205 320.102C94.2959 320.342 94.6621 320.462 95.1191 320.462ZM109.604 312.49V322H107.468V314.213H104.778L104.603 317.526C104.491 319.12 104.184 320.266 103.68 320.963C103.182 321.654 102.417 322 101.386 322H100.727L100.718 320.225L101.157 320.181C101.626 320.116 101.966 319.832 102.177 319.328C102.394 318.818 102.531 317.893 102.59 316.551L102.766 312.49H109.604ZM117.812 312.49H119.939V322H117.812V315.654L114.086 322H111.959V312.49H114.086V318.836L117.812 312.49ZM126.118 320.471C126.651 320.471 127.094 320.315 127.445 320.005C127.797 319.694 127.984 319.311 128.008 318.854H130.021C129.997 319.445 129.812 319.999 129.467 320.515C129.121 321.024 128.652 321.429 128.061 321.728C127.469 322.026 126.83 322.176 126.145 322.176C124.814 322.176 123.76 321.745 122.98 320.884C122.201 320.022 121.812 318.833 121.812 317.315V317.096C121.812 315.648 122.198 314.491 122.972 313.624C123.745 312.751 124.8 312.314 126.136 312.314C127.267 312.314 128.187 312.646 128.896 313.308C129.61 313.964 129.985 314.828 130.021 315.9H128.008C127.984 315.355 127.797 314.907 127.445 314.556C127.1 314.204 126.657 314.028 126.118 314.028C125.427 314.028 124.894 314.28 124.519 314.784C124.144 315.282 123.953 316.041 123.947 317.061V317.403C123.947 318.435 124.132 319.205 124.501 319.715C124.876 320.219 125.415 320.471 126.118 320.471ZM139.117 314.187H136.032V322H133.896V314.187H130.847V312.49H139.117V314.187ZM142.844 315.514H144.936C145.715 315.514 146.395 315.648 146.975 315.918C147.555 316.188 147.994 316.565 148.293 317.052C148.598 317.538 148.75 318.104 148.75 318.748C148.75 319.727 148.404 320.512 147.713 321.104C147.021 321.695 146.102 321.994 144.953 322H140.708V312.49H142.844V315.514ZM152.468 322H150.332V312.49H152.468V322ZM142.844 317.228V320.295H144.927C145.448 320.295 145.858 320.166 146.157 319.908C146.462 319.645 146.614 319.272 146.614 318.792C146.614 318.312 146.465 317.934 146.166 317.658C145.873 317.377 145.475 317.233 144.971 317.228H142.844Z" fill="#2D2D2D"/>
<circle cx="111" cy="209" r="26" fill="#FFEFC7"/>
<path d="M108.776 233.352L106.035 232.764L106.025 232.761L99.4491 231.355C99.4935 231.033 99.5169 230.708 99.5191 230.383V227.329C101.493 226.068 103.117 224.331 104.243 222.278C105.369 220.224 105.96 217.921 105.961 215.579V213.091H107.464C107.589 213.091 107.714 213.066 107.83 213.018C107.946 212.97 108.052 212.899 108.14 212.81C108.229 212.722 108.3 212.616 108.348 212.5C108.396 212.384 108.421 212.259 108.421 212.134V208.852C108.421 208.727 108.396 208.602 108.348 208.486C108.3 208.37 108.229 208.264 108.14 208.175C108.052 208.087 107.946 208.016 107.83 207.968C107.714 207.92 107.589 207.895 107.464 207.895H106.773C106.733 204.605 105.593 201.423 103.536 198.855C101.478 196.288 98.6201 194.483 95.4176 193.727V191.555C95.4176 191.429 95.3929 191.305 95.3449 191.188C95.2968 191.072 95.2263 190.967 95.1374 190.878C95.0485 190.789 94.943 190.718 94.8269 190.67C94.7107 190.622 94.5862 190.598 94.4605 190.598H89.5387C89.2848 190.598 89.0414 190.698 88.8619 190.878C88.6825 191.057 88.5816 191.301 88.5816 191.555V193.727C85.3791 194.483 82.5214 196.288 80.4635 198.855C78.4057 201.423 77.2662 204.605 77.2263 207.895H76.5356C76.4099 207.895 76.2854 207.92 76.1693 207.968C76.0532 208.016 75.9476 208.087 75.8587 208.175C75.7699 208.264 75.6994 208.37 75.6513 208.486C75.6032 208.602 75.5785 208.727 75.5786 208.852V212.134C75.5785 212.259 75.6032 212.384 75.6513 212.5C75.6994 212.616 75.7699 212.722 75.8587 212.81C75.9476 212.899 76.0532 212.97 76.1693 213.018C76.2854 213.066 76.4099 213.091 76.5356 213.091H78.0379V215.579C78.0395 217.921 78.6304 220.224 79.7562 222.278C80.882 224.331 82.5066 226.068 84.4801 227.329V230.383C84.4823 230.708 84.5057 231.033 84.5501 231.355L77.9745 232.761H77.9673L75.2242 233.349C73.543 233.713 72.0367 234.641 70.9543 235.978C69.8719 237.316 69.2783 238.982 69.2715 240.702V254.445C69.2715 254.699 69.3723 254.943 69.5518 255.122C69.7313 255.302 69.9747 255.402 70.2285 255.402H113.771C114.025 255.402 114.268 255.302 114.447 255.122C114.627 254.943 114.728 254.699 114.728 254.445V240.702C114.72 238.983 114.127 237.317 113.044 235.981C111.962 234.644 110.457 233.717 108.776 233.352ZM104.859 207.895H100.339V202.29C100.339 202.036 100.239 201.793 100.059 201.613C99.8797 201.434 99.6362 201.333 99.3824 201.333C99.1286 201.333 98.8852 201.434 98.7057 201.613C98.5262 201.793 98.4254 202.036 98.4254 202.29V207.895H95.4176V195.687C98.1019 196.424 100.474 198.013 102.177 200.215C103.88 202.416 104.821 205.112 104.859 207.895ZM90.4957 192.512H93.5035V207.895H90.4957V192.512ZM88.5816 195.688V207.895H85.5738V202.29C85.5738 202.036 85.473 201.793 85.2935 201.613C85.114 201.434 84.8706 201.333 84.6168 201.333C84.363 201.333 84.1196 201.434 83.9401 201.613C83.7606 201.793 83.6598 202.036 83.6598 202.29V207.895H79.1404C79.1781 205.112 80.1193 202.417 81.8221 200.215C83.525 198.013 85.8973 196.424 88.5816 195.688ZM77.4927 209.809H106.507V211.177H77.4927V209.809ZM79.9536 215.579V213.091H104.047V215.579C104.047 218.774 102.778 221.839 100.519 224.098C98.2592 226.357 95.1948 227.627 91.9996 227.627C88.8044 227.627 85.74 226.357 83.4806 224.098C81.2213 221.839 79.952 218.774 79.952 215.579H79.9536ZM91.9996 229.535C93.9295 229.537 95.8386 229.137 97.6051 228.359V230.383C97.6051 231.869 97.0145 233.295 95.9633 234.346C94.912 235.398 93.4863 235.988 91.9996 235.988C90.5129 235.988 89.0872 235.398 88.0359 234.346C86.9847 233.295 86.3941 231.869 86.3941 230.383V228.359C88.1606 229.137 90.0697 229.537 91.9996 229.535ZM71.1855 240.702C71.1914 239.42 71.6345 238.178 72.4416 237.182C73.2487 236.186 74.3715 235.495 75.6245 235.223L77.2176 234.882V253.488H71.1855V240.702ZM79.1316 234.472L85.0379 233.208C85.5407 234.441 86.3616 235.519 87.4168 236.332C88.472 237.145 89.7239 237.663 91.0448 237.835V253.488H79.1316V234.472ZM92.9566 253.488V237.835C94.2776 237.663 95.5295 237.145 96.5847 236.332C97.64 235.519 98.4608 234.441 98.9635 233.208L104.87 234.472V253.488H92.9566ZM112.814 253.488H106.782V234.882L108.375 235.224C109.628 235.496 110.751 236.187 111.558 237.183C112.365 238.179 112.808 239.42 112.814 240.702V253.488Z" fill="#2D2D2D"/>
<path d="M110.49 243.813C110.365 243.813 110.24 243.838 110.124 243.886C110.008 243.934 109.902 244.004 109.813 244.093C109.724 244.182 109.654 244.288 109.606 244.404C109.558 244.52 109.533 244.644 109.533 244.77V248.191C109.533 248.445 109.634 248.688 109.814 248.867C109.993 249.047 110.236 249.148 110.49 249.148C110.744 249.148 110.987 249.047 111.167 248.867C111.346 248.688 111.447 248.445 111.447 248.191V244.77C111.447 244.516 111.346 244.273 111.167 244.093C110.987 243.914 110.744 243.813 110.49 243.813Z" fill="#2D2D2D"/>
<path d="M87.5488 241.637H82.627C82.3731 241.637 82.1297 241.738 81.9502 241.918C81.7708 242.097 81.6699 242.34 81.6699 242.594C81.6699 242.848 81.7708 243.091 81.9502 243.271C82.1297 243.45 82.3731 243.551 82.627 243.551H87.5488C87.8026 243.551 88.0461 243.45 88.2256 243.271C88.405 243.091 88.5059 242.848 88.5059 242.594C88.5059 242.34 88.405 242.097 88.2256 241.918C88.0461 241.738 87.8026 241.637 87.5488 241.637Z" fill="#2D2D2D"/>
<path d="M262.504 292.021H257.547L256.51 295H254.198L259.032 282.203H261.027L265.87 295H263.55L262.504 292.021ZM258.171 290.228H261.88L260.025 284.919L258.171 290.228ZM267.285 295V285.49H271.144C272.444 285.49 273.435 285.719 274.114 286.176C274.794 286.627 275.134 287.277 275.134 288.127C275.134 288.566 274.996 288.962 274.721 289.313C274.451 289.659 274.05 289.926 273.517 290.113C274.138 290.242 274.63 290.503 274.993 290.896C275.356 291.288 275.538 291.751 275.538 292.284C275.538 293.169 275.21 293.843 274.554 294.306C273.903 294.769 272.966 295 271.741 295H267.285ZM269.421 290.948V293.312H271.759C272.854 293.312 273.402 292.92 273.402 292.135C273.402 291.344 272.846 290.948 271.732 290.948H269.421ZM269.421 289.419H271.179C272.392 289.419 272.998 289.062 272.998 288.347C272.998 287.597 272.424 287.21 271.275 287.187H269.421V289.419ZM284.767 287.187H281.682V295H279.546V287.187H276.496V285.49H284.767V287.187ZM285.531 290.157C285.531 289.226 285.716 288.388 286.085 287.644C286.454 286.894 286.973 286.319 287.641 285.921C288.309 285.517 289.076 285.314 289.943 285.314C291.227 285.314 292.267 285.728 293.063 286.554C293.866 287.38 294.3 288.476 294.364 289.841L294.373 290.342C294.373 291.279 294.191 292.117 293.828 292.855C293.471 293.594 292.955 294.165 292.281 294.569C291.613 294.974 290.84 295.176 289.961 295.176C288.619 295.176 287.544 294.73 286.735 293.84C285.933 292.943 285.531 291.751 285.531 290.263V290.157ZM287.667 290.342C287.667 291.32 287.869 292.088 288.273 292.645C288.678 293.195 289.24 293.471 289.961 293.471C290.682 293.471 291.241 293.189 291.64 292.627C292.044 292.064 292.246 291.241 292.246 290.157C292.246 289.196 292.038 288.435 291.622 287.872C291.212 287.31 290.652 287.028 289.943 287.028C289.246 287.028 288.692 287.307 288.282 287.863C287.872 288.414 287.667 289.24 287.667 290.342ZM304.243 295H302.107V287.213H298.398V295H296.263V285.49H304.243V295ZM312.197 295C312.104 294.818 312.021 294.522 311.951 294.112C311.271 294.821 310.439 295.176 309.455 295.176C308.5 295.176 307.721 294.903 307.117 294.358C306.514 293.813 306.212 293.14 306.212 292.337C306.212 291.323 306.587 290.547 307.337 290.008C308.093 289.463 309.171 289.19 310.571 289.19H311.881V288.566C311.881 288.074 311.743 287.682 311.468 287.389C311.192 287.09 310.773 286.94 310.211 286.94C309.725 286.94 309.326 287.063 309.016 287.31C308.705 287.55 308.55 287.857 308.55 288.232H306.414C306.414 287.711 306.587 287.225 306.933 286.773C307.278 286.316 307.747 285.959 308.339 285.701C308.937 285.443 309.602 285.314 310.334 285.314C311.447 285.314 312.335 285.596 312.997 286.158C313.659 286.715 313.999 287.5 314.017 288.514V292.803C314.017 293.658 314.137 294.341 314.377 294.851V295H312.197ZM309.851 293.462C310.272 293.462 310.668 293.359 311.037 293.154C311.412 292.949 311.693 292.674 311.881 292.328V290.535H310.729C309.938 290.535 309.344 290.673 308.945 290.948C308.547 291.224 308.348 291.613 308.348 292.117C308.348 292.527 308.482 292.855 308.752 293.102C309.027 293.342 309.394 293.462 309.851 293.462ZM324.581 290.342C324.581 291.812 324.247 292.987 323.579 293.866C322.911 294.739 322.015 295.176 320.89 295.176C319.847 295.176 319.012 294.833 318.385 294.147V298.656H316.249V285.49H318.218L318.306 286.457C318.933 285.695 319.785 285.314 320.863 285.314C322.023 285.314 322.932 285.748 323.588 286.615C324.25 287.477 324.581 288.675 324.581 290.21V290.342ZM322.454 290.157C322.454 289.208 322.264 288.455 321.883 287.898C321.508 287.342 320.969 287.063 320.266 287.063C319.393 287.063 318.766 287.424 318.385 288.145V292.363C318.771 293.102 319.404 293.471 320.283 293.471C320.963 293.471 321.493 293.198 321.874 292.653C322.261 292.103 322.454 291.271 322.454 290.157ZM329.775 291.238H328.694V295H326.559V285.49H328.694V289.287H329.635L332.263 285.49H334.899L331.463 290.043L335.189 295H332.412L329.775 291.238ZM340.445 290.157C340.445 289.226 340.63 288.388 340.999 287.644C341.368 286.894 341.887 286.319 342.555 285.921C343.223 285.517 343.99 285.314 344.857 285.314C346.141 285.314 347.181 285.728 347.978 286.554C348.78 287.38 349.214 288.476 349.278 289.841L349.287 290.342C349.287 291.279 349.105 292.117 348.742 292.855C348.385 293.594 347.869 294.165 347.195 294.569C346.527 294.974 345.754 295.176 344.875 295.176C343.533 295.176 342.458 294.73 341.649 293.84C340.847 292.943 340.445 291.751 340.445 290.263V290.157ZM342.581 290.342C342.581 291.32 342.783 292.088 343.188 292.645C343.592 293.195 344.154 293.471 344.875 293.471C345.596 293.471 346.155 293.189 346.554 292.627C346.958 292.064 347.16 291.241 347.16 290.157C347.16 289.196 346.952 288.435 346.536 287.872C346.126 287.31 345.566 287.028 344.857 287.028C344.16 287.028 343.606 287.307 343.196 287.863C342.786 288.414 342.581 289.24 342.581 290.342ZM358.313 287.187H355.229V295H353.093V287.187H350.043V285.49H358.313V287.187ZM364.387 295V285.49H368.245C369.546 285.49 370.536 285.719 371.216 286.176C371.896 286.627 372.235 287.277 372.235 288.127C372.235 288.566 372.098 288.962 371.822 289.313C371.553 289.659 371.151 289.926 370.618 290.113C371.239 290.242 371.731 290.503 372.095 290.896C372.458 291.288 372.64 291.751 372.64 292.284C372.64 293.169 372.312 293.843 371.655 294.306C371.005 294.769 370.067 295 368.843 295H364.387ZM366.522 290.948V293.312H368.86C369.956 293.312 370.504 292.92 370.504 292.135C370.504 291.344 369.947 290.948 368.834 290.948H366.522ZM366.522 289.419H368.28C369.493 289.419 370.1 289.062 370.1 288.347C370.1 287.597 369.525 287.21 368.377 287.187H366.522V289.419ZM378.678 295.176C377.324 295.176 376.226 294.751 375.382 293.901C374.544 293.046 374.125 291.909 374.125 290.491V290.228C374.125 289.278 374.307 288.432 374.67 287.688C375.039 286.938 375.555 286.354 376.217 285.938C376.879 285.522 377.617 285.314 378.432 285.314C379.727 285.314 380.726 285.728 381.429 286.554C382.138 287.38 382.492 288.549 382.492 290.061V290.922H376.278C376.343 291.707 376.604 292.328 377.061 292.785C377.523 293.242 378.104 293.471 378.801 293.471C379.779 293.471 380.576 293.075 381.191 292.284L382.343 293.383C381.962 293.951 381.452 294.394 380.813 294.71C380.181 295.021 379.469 295.176 378.678 295.176ZM378.423 287.028C377.837 287.028 377.362 287.233 376.999 287.644C376.642 288.054 376.413 288.625 376.313 289.357H380.383V289.199C380.336 288.484 380.146 287.945 379.812 287.582C379.478 287.213 379.015 287.028 378.423 287.028ZM384.197 293.295C384.789 292.633 385.185 292.006 385.384 291.414C385.589 290.816 385.712 290.055 385.753 289.129L385.876 285.49H392.477V293.295H393.795V297.83H391.668V295H385.568V297.83H383.406L383.415 293.295H384.197ZM386.702 293.295H390.35V287.327H387.95L387.889 289.146C387.807 290.893 387.411 292.275 386.702 293.295ZM398.646 291.941L400.58 285.49H402.856L399.077 296.441C398.497 298.041 397.513 298.841 396.124 298.841C395.813 298.841 395.471 298.788 395.096 298.683V297.03L395.5 297.057C396.039 297.057 396.443 296.957 396.713 296.758C396.988 296.564 397.205 296.236 397.363 295.773L397.671 294.956L394.331 285.49H396.634L398.646 291.941ZM406.24 285.49V293.295H409.211V285.49H411.347V293.295H414.326V285.49H416.453V293.295H418.079L417.903 297.821H415.961V295H404.104V285.49H406.24ZM425.603 285.49H427.729V295H425.603V288.654L421.876 295H419.749V285.49H421.876V291.836L425.603 285.49ZM433.416 288.619L435.227 285.49H437.6L434.69 290.175L437.696 295H435.341L433.442 291.748L431.553 295H429.18L432.186 290.175L429.285 285.49H431.641L433.416 288.619ZM241.542 318.372L244.354 311.49H247.026V321H244.891V314.707L242.271 321H240.821L238.193 314.672V321H236.058V311.49H238.747L241.542 318.372ZM255.367 311.49H257.494V321H255.367V314.654L251.641 321H249.514V311.49H251.641V317.836L255.367 311.49ZM268.094 316.342C268.094 317.812 267.76 318.987 267.092 319.866C266.424 320.739 265.527 321.176 264.402 321.176C263.359 321.176 262.524 320.833 261.897 320.147V324.656H259.762V311.49H261.73L261.818 312.457C262.445 311.695 263.298 311.314 264.376 311.314C265.536 311.314 266.444 311.748 267.101 312.615C267.763 313.477 268.094 314.675 268.094 316.21V316.342ZM265.967 316.157C265.967 315.208 265.776 314.455 265.396 313.898C265.021 313.342 264.481 313.063 263.778 313.063C262.905 313.063 262.278 313.424 261.897 314.145V318.363C262.284 319.102 262.917 319.471 263.796 319.471C264.476 319.471 265.006 319.198 265.387 318.653C265.773 318.103 265.967 317.271 265.967 316.157ZM269.509 316.157C269.509 315.226 269.693 314.388 270.062 313.644C270.432 312.894 270.95 312.319 271.618 311.921C272.286 311.517 273.054 311.314 273.921 311.314C275.204 311.314 276.244 311.728 277.041 312.554C277.844 313.38 278.277 314.476 278.342 315.841L278.351 316.342C278.351 317.279 278.169 318.117 277.806 318.855C277.448 319.594 276.933 320.165 276.259 320.569C275.591 320.974 274.817 321.176 273.938 321.176C272.597 321.176 271.521 320.73 270.713 319.84C269.91 318.943 269.509 317.751 269.509 316.263V316.157ZM271.645 316.342C271.645 317.32 271.847 318.088 272.251 318.645C272.655 319.195 273.218 319.471 273.938 319.471C274.659 319.471 275.219 319.189 275.617 318.627C276.021 318.064 276.224 317.241 276.224 316.157C276.224 315.196 276.016 314.435 275.6 313.872C275.189 313.31 274.63 313.028 273.921 313.028C273.224 313.028 272.67 313.307 272.26 313.863C271.85 314.414 271.645 315.24 271.645 316.342ZM280.319 321V311.49H284.178C285.479 311.49 286.469 311.719 287.148 312.176C287.828 312.627 288.168 313.277 288.168 314.127C288.168 314.566 288.03 314.962 287.755 315.313C287.485 315.659 287.084 315.926 286.551 316.113C287.172 316.242 287.664 316.503 288.027 316.896C288.391 317.288 288.572 317.751 288.572 318.284C288.572 319.169 288.244 319.843 287.588 320.306C286.938 320.769 286 321 284.775 321H280.319ZM282.455 316.948V319.312H284.793C285.889 319.312 286.437 318.92 286.437 318.135C286.437 317.344 285.88 316.948 284.767 316.948H282.455ZM282.455 315.419H284.213C285.426 315.419 286.032 315.062 286.032 314.347C286.032 313.597 285.458 313.21 284.31 313.187H282.455V315.419ZM292.721 314.514H294.812C295.592 314.514 296.271 314.648 296.852 314.918C297.432 315.188 297.871 315.565 298.17 316.052C298.475 316.538 298.627 317.104 298.627 317.748C298.627 318.727 298.281 319.512 297.59 320.104C296.898 320.695 295.979 320.994 294.83 321H290.585V311.49H292.721V314.514ZM302.345 321H300.209V311.49H302.345V321ZM292.721 316.228V319.295H294.804C295.325 319.295 295.735 319.166 296.034 318.908C296.339 318.645 296.491 318.272 296.491 317.792C296.491 317.312 296.342 316.934 296.043 316.658C295.75 316.377 295.352 316.233 294.848 316.228H292.721ZM308.321 314.619L310.132 311.49H312.505L309.596 316.175L312.602 321H310.246L308.348 317.748L306.458 321H304.085L307.091 316.175L304.19 311.49H306.546L308.321 314.619ZM326.506 321H324.37V313.213H320.661V321H318.525V311.49H326.506V321ZM337.105 316.342C337.105 317.812 336.771 318.987 336.104 319.866C335.436 320.739 334.539 321.176 333.414 321.176C332.371 321.176 331.536 320.833 330.909 320.147V324.656H328.773V311.49H330.742L330.83 312.457C331.457 311.695 332.31 311.314 333.388 311.314C334.548 311.314 335.456 311.748 336.112 312.615C336.774 313.477 337.105 314.675 337.105 316.21V316.342ZM334.979 316.157C334.979 315.208 334.788 314.455 334.407 313.898C334.032 313.342 333.493 313.063 332.79 313.063C331.917 313.063 331.29 313.424 330.909 314.145V318.363C331.296 319.102 331.929 319.471 332.808 319.471C333.487 319.471 334.018 319.198 334.398 318.653C334.785 318.103 334.979 317.271 334.979 316.157ZM338.521 316.157C338.521 315.226 338.705 314.388 339.074 313.644C339.443 312.894 339.962 312.319 340.63 311.921C341.298 311.517 342.065 311.314 342.933 311.314C344.216 311.314 345.256 311.728 346.053 312.554C346.855 313.38 347.289 314.476 347.354 315.841L347.362 316.342C347.362 317.279 347.181 318.117 346.817 318.855C346.46 319.594 345.944 320.165 345.271 320.569C344.603 320.974 343.829 321.176 342.95 321.176C341.608 321.176 340.533 320.73 339.725 319.84C338.922 318.943 338.521 317.751 338.521 316.263V316.157ZM340.656 316.342C340.656 317.32 340.858 318.088 341.263 318.645C341.667 319.195 342.229 319.471 342.95 319.471C343.671 319.471 344.23 319.189 344.629 318.627C345.033 318.064 345.235 317.241 345.235 316.157C345.235 315.196 345.027 314.435 344.611 313.872C344.201 313.31 343.642 313.028 342.933 313.028C342.235 313.028 341.682 313.307 341.271 313.863C340.861 314.414 340.656 315.24 340.656 316.342ZM355.105 311.49H357.232V321H355.105V314.654L351.379 321H349.252V311.49H351.379V317.836L355.105 311.49ZM366.707 314.092C366.707 314.514 366.578 314.903 366.32 315.261C366.068 315.612 365.711 315.894 365.248 316.104C366.338 316.485 366.883 317.221 366.883 318.311C366.883 319.184 366.528 319.881 365.819 320.402C365.11 320.918 364.161 321.176 362.972 321.176C362.245 321.176 361.583 321.056 360.985 320.815C360.388 320.569 359.922 320.224 359.588 319.778C359.254 319.327 359.087 318.794 359.087 318.179H361.214C361.214 318.565 361.387 318.891 361.732 319.154C362.078 319.412 362.515 319.541 363.042 319.541C363.563 319.541 363.977 319.421 364.281 319.181C364.592 318.935 364.747 318.615 364.747 318.223C364.747 317.76 364.612 317.426 364.343 317.221C364.073 317.016 363.657 316.913 363.095 316.913H361.565V315.375H363.147C364.103 315.363 364.58 314.971 364.58 314.197C364.58 313.811 364.442 313.509 364.167 313.292C363.892 313.075 363.514 312.967 363.033 312.967C362.564 312.967 362.169 313.084 361.847 313.318C361.524 313.547 361.363 313.837 361.363 314.188H359.236C359.236 313.351 359.588 312.665 360.291 312.132C360.994 311.593 361.888 311.323 362.972 311.323C364.149 311.323 365.066 311.563 365.723 312.044C366.379 312.524 366.707 313.207 366.707 314.092ZM368.86 321V311.49H372.719C374.02 311.49 375.01 311.719 375.689 312.176C376.369 312.627 376.709 313.277 376.709 314.127C376.709 314.566 376.571 314.962 376.296 315.313C376.026 315.659 375.625 315.926 375.092 316.113C375.713 316.242 376.205 316.503 376.568 316.896C376.932 317.288 377.113 317.751 377.113 318.284C377.113 319.169 376.785 319.843 376.129 320.306C375.479 320.769 374.541 321 373.316 321H368.86ZM370.996 316.948V319.312H373.334C374.43 319.312 374.978 318.92 374.978 318.135C374.978 317.344 374.421 316.948 373.308 316.948H370.996ZM370.996 315.419H372.754C373.967 315.419 374.573 315.062 374.573 314.347C374.573 313.597 373.999 313.21 372.851 313.187H370.996V315.419ZM378.563 316.157C378.563 315.226 378.748 314.388 379.117 313.644C379.486 312.894 380.005 312.319 380.673 311.921C381.341 311.517 382.108 311.314 382.976 311.314C384.259 311.314 385.299 311.728 386.096 312.554C386.898 313.38 387.332 314.476 387.396 315.841L387.405 316.342C387.405 317.279 387.224 318.117 386.86 318.855C386.503 319.594 385.987 320.165 385.313 320.569C384.646 320.974 383.872 321.176 382.993 321.176C381.651 321.176 380.576 320.73 379.768 319.84C378.965 318.943 378.563 317.751 378.563 316.263V316.157ZM380.699 316.342C380.699 317.32 380.901 318.088 381.306 318.645C381.71 319.195 382.272 319.471 382.993 319.471C383.714 319.471 384.273 319.189 384.672 318.627C385.076 318.064 385.278 317.241 385.278 316.157C385.278 315.196 385.07 314.435 384.654 313.872C384.244 313.31 383.685 313.028 382.976 313.028C382.278 313.028 381.725 313.307 381.314 313.863C380.904 314.414 380.699 315.24 380.699 316.342ZM388.618 319.295C389.21 318.633 389.605 318.006 389.805 317.414C390.01 316.816 390.133 316.055 390.174 315.129L390.297 311.49H396.897V319.295H398.216V323.83H396.089V321H389.989V323.83H387.827L387.836 319.295H388.618ZM391.123 319.295H394.771V313.327H392.371L392.31 315.146C392.228 316.893 391.832 318.275 391.123 319.295ZM405.52 311.49H407.646V321H405.52V314.654L401.793 321H399.666V311.49H401.793V317.836L405.52 311.49ZM417.402 313.187H414.317V321H412.182V313.187H409.132V311.49H417.402V313.187ZM422.456 321.176C421.103 321.176 420.004 320.751 419.16 319.901C418.322 319.046 417.903 317.909 417.903 316.491V316.228C417.903 315.278 418.085 314.432 418.448 313.688C418.817 312.938 419.333 312.354 419.995 311.938C420.657 311.522 421.396 311.314 422.21 311.314C423.505 311.314 424.504 311.728 425.207 312.554C425.916 313.38 426.271 314.549 426.271 316.061V316.922H420.057C420.121 317.707 420.382 318.328 420.839 318.785C421.302 319.242 421.882 319.471 422.579 319.471C423.558 319.471 424.354 319.075 424.97 318.284L426.121 319.383C425.74 319.951 425.23 320.394 424.592 320.71C423.959 321.021 423.247 321.176 422.456 321.176ZM422.201 313.028C421.615 313.028 421.141 313.233 420.777 313.644C420.42 314.054 420.191 314.625 420.092 315.357H424.161V315.199C424.114 314.484 423.924 313.945 423.59 313.582C423.256 313.213 422.793 313.028 422.201 313.028ZM436.018 311.49V321H433.882V313.213H431.192L431.017 316.526C430.905 318.12 430.598 319.266 430.094 319.963C429.596 320.654 428.831 321 427.8 321H427.141L427.132 319.225L427.571 319.181C428.04 319.116 428.38 318.832 428.591 318.328C428.808 317.818 428.945 316.893 429.004 315.551L429.18 311.49H436.018ZM442.478 321.176C441.124 321.176 440.025 320.751 439.182 319.901C438.344 319.046 437.925 317.909 437.925 316.491V316.228C437.925 315.278 438.106 314.432 438.47 313.688C438.839 312.938 439.354 312.354 440.017 311.938C440.679 311.522 441.417 311.314 442.231 311.314C443.526 311.314 444.525 311.728 445.229 312.554C445.938 313.38 446.292 314.549 446.292 316.061V316.922H440.078C440.143 317.707 440.403 318.328 440.86 318.785C441.323 319.242 441.903 319.471 442.601 319.471C443.579 319.471 444.376 319.075 444.991 318.284L446.143 319.383C445.762 319.951 445.252 320.394 444.613 320.71C443.98 321.021 443.269 321.176 442.478 321.176ZM442.223 313.028C441.637 313.028 441.162 313.233 440.799 313.644C440.441 314.054 440.213 314.625 440.113 315.357H444.183V315.199C444.136 314.484 443.945 313.945 443.611 313.582C443.277 313.213 442.814 313.028 442.223 313.028ZM453.895 311.49H456.021V321H453.895V314.654L450.168 321H448.041V311.49H450.168V317.836L453.895 311.49ZM454.896 307.843C454.896 308.581 454.639 309.179 454.123 309.636C453.607 310.093 452.919 310.321 452.058 310.321C451.196 310.321 450.508 310.093 449.992 309.636C449.477 309.179 449.219 308.581 449.219 307.843H450.818C450.818 308.229 450.927 308.531 451.144 308.748C451.366 308.959 451.671 309.064 452.058 309.064C452.444 309.064 452.746 308.959 452.963 308.748C453.18 308.531 453.288 308.229 453.288 307.843H454.896Z" fill="#2D2D2D"/>
<circle cx="365" cy="209" r="26" fill="#FFEFC7"/>
<path d="M306.895 231.545L309.228 224.545C309.387 224.068 309.832 223.747 310.334 223.747H316.167C316.812 223.747 317.334 224.269 317.334 224.913V230.747C317.334 231.327 316.908 231.819 316.333 231.902L308.166 233.068C308.111 233.076 308.056 233.08 308.001 233.08C307.356 233.079 306.834 232.557 306.835 231.912C306.835 231.787 306.855 231.663 306.895 231.545ZM315.001 229.735V226.08H311.175L309.704 230.491L315.001 229.735Z" fill="#2D2D2D"/>
<path d="M303.333 208.58C302.831 208.579 302.386 208.258 302.227 207.782L301.061 204.282C301.021 204.163 301 204.038 301 203.913V199.246C301 198.602 301.522 198.08 302.167 198.08H354.447C356.377 194.734 360.655 193.586 364.001 195.516C366.168 196.766 367.502 199.078 367.5 201.58V228.413H369.833C370.478 228.413 371 228.935 371 229.58V243.58C371 244.224 370.478 244.746 369.833 244.746H368.667V247.08H369.833V249.413H365.167V247.08H366.333V244.746H361.55C360.906 247.903 357.824 249.94 354.668 249.295C351.511 248.651 349.475 245.57 350.119 242.413C350.763 239.256 353.845 237.22 357.001 237.864C359.292 238.332 361.082 240.122 361.55 242.413H364V235.413H338.816L336 238.229V242.413H338.45C339.094 239.256 342.176 237.22 345.332 237.864C348.489 238.509 350.525 241.59 349.881 244.746C349.237 247.903 346.155 249.94 342.999 249.295C340.708 248.828 338.918 247.037 338.45 244.746H324.333V247.08H325.5V249.413H320.833V247.08H322V244.746H317.217C316.576 247.904 313.496 249.943 310.339 249.302C308.044 248.836 306.249 247.042 305.783 244.746H302.167C301.522 244.746 301 244.224 301 243.58V231.913C301 231.764 301.028 231.617 301.083 231.479L305.75 219.812C305.927 219.369 306.356 219.079 306.833 219.08H320.833C321.478 219.08 322 219.602 322 220.246V228.413H341.833V221.254C341.838 217.478 344.898 214.418 348.675 214.413H353.5V212.907L331.135 205.08H310.007L309.106 207.782C308.947 208.258 308.502 208.579 308 208.58H306.833V210.913C306.833 211.557 306.311 212.08 305.667 212.08C305.022 212.08 304.5 212.602 304.5 213.246C304.5 213.891 305.022 214.413 305.667 214.413C306.311 214.413 306.833 213.891 306.833 213.246H309.167C309.166 215.179 307.599 216.746 305.666 216.746C303.733 216.745 302.166 215.178 302.167 213.245C302.167 211.762 303.102 210.44 304.5 209.946V208.58H303.333V208.58ZM355.833 240.08C353.9 240.08 352.333 241.647 352.333 243.58C352.333 245.513 353.9 247.08 355.833 247.08C357.766 247.08 359.333 245.513 359.333 243.58C359.333 241.647 357.766 240.08 355.833 240.08ZM344.167 247.08C346.1 247.08 347.667 245.513 347.667 243.58C347.667 241.647 346.1 240.08 344.167 240.08C342.234 240.08 340.667 241.647 340.667 243.58C340.667 245.513 342.234 247.08 344.167 247.08ZM311.5 247.08C313.433 247.08 315 245.513 315 243.58C315 241.647 313.433 240.08 311.5 240.08C309.567 240.08 308 241.647 308 243.58C308 245.513 309.567 247.08 311.5 247.08ZM319.667 221.413H307.623L303.333 232.137V236.58H305.667V238.913H303.333V242.413H305.783C306.424 239.256 309.504 237.216 312.661 237.857C314.956 238.323 316.751 240.117 317.217 242.413H319.667V221.413ZM365.167 201.58C365.167 199.002 363.077 196.913 360.5 196.913C357.923 196.913 355.833 199.002 355.833 201.58V228.413H365.167V201.58ZM366.333 242.413H368.667V235.413H366.333V242.413ZM322 242.413H324.333V235.413H322V242.413ZM322 230.746V233.08H325.5C326.144 233.08 326.667 233.602 326.667 234.246V242.413H333.667V237.746C333.667 237.437 333.79 237.14 334.008 236.922L337.508 233.422C337.727 233.203 338.024 233.08 338.333 233.08H368.667V230.746H322ZM348.833 216.746H348.675C346.186 216.749 344.169 218.766 344.167 221.254V222.58H348.833V216.746ZM351.167 216.746V223.746C351.167 224.391 350.644 224.913 350 224.913H344.167V228.413H353.5V216.746H351.167ZM353.5 210.436V205.08H338.198L353.5 210.436ZM317.333 202.746H353.5V200.413H317.333V202.746ZM310.333 202.746H315V200.413H310.333V202.746ZM307.159 206.246L308 203.724V200.413H303.333V203.724L304.174 206.246H307.159Z" fill="#2D2D2D"/>
<defs>
<clipPath id="clip0_3_8389">
<rect width="70" height="68.9264" fill="white" transform="translate(62 6)"/>
</clipPath>
<clipPath id="clip1_3_8389">
<rect width="70" height="70" fill="white" transform="translate(311 5)"/>
</clipPath>
</defs>
</svg>
