<svg width="871" height="31" viewBox="0 0 871 31" fill="none" xmlns="http://www.w3.org/2000/svg">
<path d="M6.28571 19.7289C6.28571 19.5304 6.36849 19.3401 6.51584 19.1997C6.66319 19.0594 6.86303 18.9805 7.07142 18.9805H11.7857C11.9941 18.9805 12.1939 19.0594 12.3413 19.1997C12.4886 19.3401 12.5714 19.5304 12.5714 19.7289C12.5714 19.9274 12.4886 20.1178 12.3413 20.2581C12.1939 20.3984 11.9941 20.4773 11.7857 20.4773H7.07142C6.86303 20.4773 6.66319 20.3984 6.51584 20.2581C6.36849 20.1178 6.28571 19.9274 6.28571 19.7289ZM3.14285 15.2386C3.14285 15.0402 3.22563 14.8498 3.37298 14.7095C3.52033 14.5691 3.72018 14.4903 3.92857 14.4903H14.9286C15.1369 14.4903 15.3368 14.5691 15.4841 14.7095C15.6315 14.8498 15.7143 15.0402 15.7143 15.2386C15.7143 15.4371 15.6315 15.6275 15.4841 15.7678C15.3368 15.9082 15.1369 15.987 14.9286 15.987H3.92857C3.72018 15.987 3.52033 15.9082 3.37298 15.7678C3.22563 15.6275 3.14285 15.4371 3.14285 15.2386ZM0 10.7484C0 10.5499 0.0827804 10.3595 0.23013 10.2192C0.37748 10.0788 0.577329 10 0.785713 10H18.0714C18.2798 10 18.4796 10.0788 18.627 10.2192C18.7743 10.3595 18.8571 10.5499 18.8571 10.7484C18.8571 10.9469 18.7743 11.1372 18.627 11.2776C18.4796 11.4179 18.2798 11.4968 18.0714 11.4968H0.785713C0.577329 11.4968 0.37748 11.4179 0.23013 11.2776C0.0827804 11.1372 0 10.9469 0 10.7484Z" fill="#535554"/>
<rect x="42" y="1" width="139" height="29" stroke="#535554"/>
<path d="M165 17L168.5 20L172 17" stroke="#535554"/>
<path d="M165 14L168.5 11L172 14" stroke="#535554"/>
<path d="M66.484 11.6V20H65.608V12.368H60.292V20H59.416V11.6H66.484ZM71.7183 20.06C71.1103 20.06 70.5623 19.924 70.0743 19.652C69.5863 19.372 69.2023 18.988 68.9223 18.5C68.6423 18.012 68.5023 17.46 68.5023 16.844C68.5023 16.228 68.6423 15.676 68.9223 15.188C69.2023 14.7 69.5863 14.32 70.0743 14.048C70.5623 13.776 71.1103 13.64 71.7183 13.64C72.3263 13.64 72.8743 13.776 73.3623 14.048C73.8503 14.32 74.2303 14.7 74.5023 15.188C74.7823 15.676 74.9223 16.228 74.9223 16.844C74.9223 17.46 74.7823 18.012 74.5023 18.5C74.2303 18.988 73.8503 19.372 73.3623 19.652C72.8743 19.924 72.3263 20.06 71.7183 20.06ZM71.7183 19.304C72.1663 19.304 72.5663 19.204 72.9183 19.004C73.2783 18.796 73.5583 18.504 73.7583 18.128C73.9583 17.752 74.0583 17.324 74.0583 16.844C74.0583 16.364 73.9583 15.936 73.7583 15.56C73.5583 15.184 73.2783 14.896 72.9183 14.696C72.5663 14.488 72.1663 14.384 71.7183 14.384C71.2703 14.384 70.8663 14.488 70.5063 14.696C70.1543 14.896 69.8743 15.184 69.6663 15.56C69.4663 15.936 69.3663 16.364 69.3663 16.844C69.3663 17.324 69.4663 17.752 69.6663 18.128C69.8743 18.504 70.1543 18.796 70.5063 19.004C70.8663 19.204 71.2703 19.304 71.7183 19.304ZM85.2479 13.688L82.0919 20.756C81.8359 21.348 81.5399 21.768 81.2039 22.016C80.8679 22.264 80.4639 22.388 79.9919 22.388C79.6879 22.388 79.4039 22.34 79.1399 22.244C78.8759 22.148 78.6479 22.004 78.4559 21.812L78.8519 21.176C79.1719 21.496 79.5559 21.656 80.0039 21.656C80.2919 21.656 80.5359 21.576 80.7359 21.416C80.9439 21.256 81.1359 20.984 81.3119 20.6L81.5879 19.988L78.7679 13.688H79.6559L82.0319 19.052L84.4079 13.688H85.2479ZM93.6313 13.688V20H92.8513V15.008L90.2953 19.232H89.9113L87.3553 14.996V20H86.5753V13.688H87.4393L90.1153 18.236L92.8393 13.688H93.6313ZM98.6598 20.06C98.0518 20.06 97.5038 19.924 97.0158 19.652C96.5278 19.372 96.1438 18.988 95.8638 18.5C95.5838 18.012 95.4438 17.46 95.4438 16.844C95.4438 16.228 95.5838 15.676 95.8638 15.188C96.1438 14.7 96.5278 14.32 97.0158 14.048C97.5038 13.776 98.0518 13.64 98.6598 13.64C99.2678 13.64 99.8158 13.776 100.304 14.048C100.792 14.32 101.172 14.7 101.444 15.188C101.724 15.676 101.864 16.228 101.864 16.844C101.864 17.46 101.724 18.012 101.444 18.5C101.172 18.988 100.792 19.372 100.304 19.652C99.8158 19.924 99.2678 20.06 98.6598 20.06ZM98.6598 19.304C99.1078 19.304 99.5078 19.204 99.8598 19.004C100.22 18.796 100.5 18.504 100.7 18.128C100.9 17.752 101 17.324 101 16.844C101 16.364 100.9 15.936 100.7 15.56C100.5 15.184 100.22 14.896 99.8598 14.696C99.5078 14.488 99.1078 14.384 98.6598 14.384C98.2118 14.384 97.8078 14.488 97.4478 14.696C97.0958 14.896 96.8158 15.184 96.6077 15.56C96.4078 15.936 96.3078 16.364 96.3078 16.844C96.3078 17.324 96.4078 17.752 96.6077 18.128C96.8158 18.504 97.0958 18.796 97.4478 19.004C97.8078 19.204 98.2118 19.304 98.6598 19.304ZM108.81 13.688V20H107.958V14.444H104.934L104.85 16.004C104.786 17.316 104.634 18.324 104.394 19.028C104.154 19.732 103.726 20.084 103.11 20.084C102.942 20.084 102.738 20.052 102.498 19.988L102.558 19.256C102.702 19.288 102.802 19.304 102.858 19.304C103.186 19.304 103.434 19.152 103.602 18.848C103.77 18.544 103.882 18.168 103.938 17.72C103.993 17.272 104.042 16.68 104.082 15.944L104.19 13.688H108.81ZM115.996 13.688V20H115.144V17.372C114.416 17.692 113.7 17.852 112.996 17.852C112.236 17.852 111.644 17.68 111.22 17.336C110.796 16.984 110.584 16.46 110.584 15.764V13.688H111.436V15.716C111.436 16.188 111.588 16.548 111.892 16.796C112.196 17.036 112.616 17.156 113.152 17.156C113.744 17.156 114.408 17 115.144 16.688V13.688H115.996ZM120.587 13.64C121.411 13.64 122.043 13.848 122.483 14.264C122.923 14.672 123.143 15.28 123.143 16.088V20H122.327V19.016C122.135 19.344 121.851 19.6 121.475 19.784C121.107 19.968 120.667 20.06 120.155 20.06C119.451 20.06 118.891 19.892 118.475 19.556C118.059 19.22 117.851 18.776 117.851 18.224C117.851 17.688 118.043 17.256 118.427 16.928C118.819 16.6 119.439 16.436 120.287 16.436H122.291V16.052C122.291 15.508 122.139 15.096 121.835 14.816C121.531 14.528 121.087 14.384 120.503 14.384C120.103 14.384 119.719 14.452 119.351 14.588C118.983 14.716 118.667 14.896 118.403 15.128L118.019 14.492C118.339 14.22 118.723 14.012 119.171 13.868C119.619 13.716 120.091 13.64 120.587 13.64ZM120.287 19.388C120.767 19.388 121.179 19.28 121.523 19.064C121.867 18.84 122.123 18.52 122.291 18.104V17.072H120.311C119.231 17.072 118.691 17.448 118.691 18.2C118.691 18.568 118.831 18.86 119.111 19.076C119.391 19.284 119.783 19.388 120.287 19.388ZM125.411 13.688H126.263V16.484H130.235V13.688H131.087V20H130.235V17.216H126.263V20H125.411V13.688ZM133.509 13.688H134.361V18.704L138.573 13.688H139.329V20H138.477V14.984L134.277 20H133.509V13.688ZM147.195 13.64C147.787 13.64 148.319 13.776 148.791 14.048C149.271 14.32 149.647 14.7 149.919 15.188C150.191 15.676 150.327 16.228 150.327 16.844C150.327 17.46 150.191 18.012 149.919 18.5C149.647 18.988 149.271 19.372 148.791 19.652C148.319 19.924 147.787 20.06 147.195 20.06C146.635 20.06 146.127 19.94 145.671 19.7C145.215 19.452 144.843 19.112 144.555 18.68C144.275 18.248 144.111 17.752 144.063 17.192H142.623V20H141.771V13.688H142.623V16.412H144.075C144.139 15.868 144.311 15.388 144.591 14.972C144.879 14.548 145.247 14.22 145.695 13.988C146.143 13.756 146.643 13.64 147.195 13.64ZM147.195 19.316C147.627 19.316 148.015 19.212 148.359 19.004C148.711 18.796 148.987 18.504 149.187 18.128C149.387 17.752 149.487 17.324 149.487 16.844C149.487 16.364 149.387 15.936 149.187 15.56C148.987 15.184 148.711 14.896 148.359 14.696C148.015 14.488 147.627 14.384 147.195 14.384C146.763 14.384 146.371 14.488 146.019 14.696C145.675 14.896 145.403 15.184 145.203 15.56C145.003 15.936 144.903 16.364 144.903 16.844C144.903 17.324 145.003 17.752 145.203 18.128C145.403 18.504 145.675 18.796 146.019 19.004C146.371 19.212 146.763 19.316 147.195 19.316Z" fill="#535554"/>
<rect x="827" y="7" width="6.96585" height="6.96585" fill="#535554"/>
<rect x="836.834" y="7" width="6.96585" height="6.96585" fill="#535554"/>
<rect x="836.834" y="16.834" width="6.96585" height="6.96585" fill="#535554"/>
<rect x="827" y="16.834" width="6.96585" height="6.96585" fill="#535554"/>
<rect x="853.8" y="7" width="16.8" height="2.52" fill="#535554"/>
<rect x="853.8" y="13.7197" width="16.8" height="2.52" fill="#535554"/>
<rect x="853.8" y="20.4404" width="16.8" height="2.52" fill="#535554"/>
</svg>
