<svg width="556" height="70" viewBox="0 0 556 70" fill="none" xmlns="http://www.w3.org/2000/svg">
<rect x="-0.00195312" y="66" width="556" height="4" fill="#C4C4C4"/>
<rect x="-0.00195312" y="66" width="138.099" height="4" fill="#535554"/>
<rect x="517" y="1" width="38" height="38" stroke="#FF971D" stroke-width="2"/>
<path d="M531.354 20.3536C531.549 20.1583 531.549 19.8417 531.354 19.6464L528.172 16.4645C527.976 16.2692 527.66 16.2692 527.464 16.4645C527.269 16.6597 527.269 16.9763 527.464 17.1716L530.293 20L527.464 22.8284C527.269 23.0237 527.269 23.3403 527.464 23.5355C527.66 23.7308 527.976 23.7308 528.172 23.5355L531.354 20.3536ZM501 20.5L531 20.5L531 19.5L501 19.5L501 20.5Z" fill="#2D2D2D"/>
<path d="M463.646 20.3536C463.451 20.1583 463.451 19.8417 463.646 19.6464L466.828 16.4645C467.024 16.2692 467.34 16.2692 467.536 16.4645C467.731 16.6597 467.731 16.9763 467.536 17.1716L464.707 20L467.536 22.8284C467.731 23.0237 467.731 23.3403 467.536 23.5355C467.34 23.7308 467.024 23.7308 466.828 23.5355L463.646 20.3536ZM494 20.5L464 20.5L464 19.5L494 19.5L494 20.5Z" fill="#C4C4C4"/>
</svg>
